<svg width="280" height="51" viewBox="0 0 280 51" fill="none" xmlns="http://www.w3.org/2000/svg">
<path d="M0.184313 18.0638C-0.966526 11.537 3.3915 5.31314 9.91823 4.1623L32.4785 0.184313C39.0052 -0.966526 45.2291 3.3915 46.38 9.91823L50.3579 32.4785C51.5088 39.0052 47.1507 45.2291 40.624 46.38L18.0638 50.3579C11.537 51.5088 5.31314 47.1507 4.1623 40.624L0.184313 18.0638Z" fill="#1DB46F"/>
<path d="M25.4512 22.7697C20.9472 22.5927 19.322 21.7378 18.9222 19.9341C18.4636 17.8646 20.0373 16.0019 23.2056 15.2997C26.5427 14.5602 28.1377 15.8998 28.7762 18.2481L32.9194 17.3299C32.0644 14.0933 29.4311 11.5297 25.2982 11.4298L24.3767 7.27179L18.7524 8.51829L19.6613 12.6194C16.201 14.2229 13.8066 17.2633 14.6187 20.9277C15.5907 25.3136 19.6554 26.7034 25.1679 26.8163C30.1073 26.9167 31.415 28.3797 31.8063 30.1455C32.0967 31.4555 31.6409 33.7476 27.4977 34.6659C23.6357 35.5218 21.73 34.1116 21.0273 31.9169L16.9028 32.831C18.0493 36.9392 21.6415 38.5931 25.4135 38.5738L26.3267 42.6939L31.9509 41.4474L31.0462 37.3653C34.5463 35.8526 36.9767 33.0631 36.1141 29.1708C34.919 23.7787 29.9552 22.9467 25.4512 22.7697Z" fill="white"/>
<path d="M58 25.1757C58 21.967 58.7309 19.4115 60.1928 17.5092C61.6677 15.6068 63.6794 14.6557 66.228 14.6557C68.272 14.6557 69.9603 15.4039 71.2928 16.9004V6.39949H76.9205V35.6195H71.8556L71.5839 33.4318C70.1867 35.1439 68.3885 36 66.1892 36C63.7182 36 61.7323 35.0488 60.2316 33.1465C58.7439 31.2315 58 28.5745 58 25.1757ZM63.6082 25.5751C63.6082 27.5029 63.951 28.9803 64.6367 30.0076C65.3224 31.0349 66.3185 31.5485 67.6252 31.5485C69.3587 31.5485 70.5813 30.832 71.2928 29.3989V21.2758C70.5942 19.8427 69.3846 19.1262 67.664 19.1262C64.9601 19.1262 63.6082 21.2758 63.6082 25.5751Z" fill="#27AE60"/>
<path d="M90.9313 36C87.8523 36 85.3425 35.0742 83.4019 33.2226C81.4743 31.371 80.5105 28.9042 80.5105 25.8224V25.2898C80.5105 23.2226 80.918 21.3773 81.733 19.754C82.5481 18.1179 83.6995 16.8624 85.1872 15.9873C86.6879 15.0996 88.3956 14.6557 90.3103 14.6557C93.1823 14.6557 95.4399 15.5434 97.0829 17.319C98.7388 19.0945 99.5668 21.6119 99.5668 24.8713V27.116H86.1963C86.3774 28.4604 86.9208 29.5384 87.8264 30.35C88.7449 31.1617 89.9028 31.5675 91.3 31.5675C93.4605 31.5675 95.1488 30.8003 96.3649 29.2657L99.1205 32.2904C98.2795 33.4572 97.1411 34.3703 95.7051 35.0298C94.2691 35.6766 92.6778 36 90.9313 36ZM90.2909 19.1072C89.1783 19.1072 88.2727 19.475 87.5741 20.2105C86.8885 20.9461 86.4486 21.9987 86.2545 23.3684H94.0556V22.9309C94.0297 21.7134 93.6934 20.7749 93.0465 20.1154C92.3997 19.4432 91.4811 19.1072 90.2909 19.1072Z" fill="#27AE60"/>
<path d="M110.356 28.9042L114.257 15.0361H120.117L113.034 35.6195H107.678L100.595 15.0361H106.456L110.356 28.9042Z" fill="#27AE60"/>
<path d="M119.632 32.9182C119.632 32.0431 119.93 31.3329 120.525 30.7876C121.133 30.2422 121.89 29.9696 122.795 29.9696C123.714 29.9696 124.471 30.2422 125.066 30.7876C125.674 31.3329 125.978 32.0431 125.978 32.9182C125.978 33.7806 125.68 34.4845 125.085 35.0298C124.49 35.5625 123.727 35.8288 122.795 35.8288C121.877 35.8288 121.12 35.5625 120.525 35.0298C119.93 34.4845 119.632 33.7806 119.632 32.9182Z" fill="#27AE60"/>
<path d="M132.265 35.6195V19.0691H129.141V15.0361H132.265V14.085C132.291 11.4978 133.1 9.50666 134.691 8.1116C136.295 6.70387 138.553 6 141.463 6C143.21 6 145.332 6.37413 147.828 7.12238L147.013 11.669C145.746 11.3012 144.762 11.0666 144.064 10.9651C143.365 10.851 142.615 10.7939 141.813 10.7939C139.199 10.7939 137.893 11.929 137.893 14.1991V15.0361H142.026V19.0691H137.893V35.6195H132.265ZM150.448 35.6195H144.821V15.0361H150.448V35.6195Z" fill="#27AE60"/>
<path d="M160.248 15.0361L160.423 17.4141C161.923 15.5751 163.935 14.6557 166.458 14.6557C168.683 14.6557 170.339 15.2961 171.426 16.577C172.512 17.858 173.069 19.773 173.095 22.3221V35.6195H167.486V22.4553C167.486 21.2885 167.228 20.4451 166.71 19.9252C166.193 19.3925 165.332 19.1262 164.129 19.1262C162.551 19.1262 161.367 19.7857 160.578 21.1046V35.6195H154.97V15.0361H160.248Z" fill="#27AE60"/>
<path d="M189.531 35.6195C189.272 35.1249 189.085 34.5098 188.968 33.7743C187.61 35.2581 185.844 36 183.671 36C181.614 36 179.906 35.4166 178.548 34.2498C177.202 33.0831 176.529 31.6119 176.529 29.8364C176.529 27.655 177.351 25.981 178.994 24.8142C180.65 23.6474 183.037 23.0577 186.155 23.045H188.735V21.8656C188.735 20.9144 188.483 20.1535 187.979 19.5828C187.487 19.012 186.704 18.7267 185.631 18.7267C184.686 18.7267 183.942 18.9486 183.399 19.3925C182.869 19.8364 182.603 20.4451 182.603 21.2188H176.995C176.995 20.0266 177.37 18.9233 178.121 17.9087C178.871 16.8941 179.932 16.1015 181.303 15.5308C182.674 14.9474 184.214 14.6557 185.922 14.6557C188.509 14.6557 190.56 15.2961 192.073 16.577C193.6 17.8453 194.363 19.6335 194.363 21.9417V30.8637C194.376 32.8167 194.654 34.2942 195.198 35.2961V35.6195H189.531ZM184.893 31.7958C185.721 31.7958 186.484 31.6183 187.183 31.2632C187.882 30.8954 188.399 30.4071 188.735 29.7984V26.26H186.64C183.832 26.26 182.338 27.2112 182.157 29.1135L182.138 29.4369C182.138 30.1218 182.383 30.6861 182.875 31.13C183.367 31.5739 184.039 31.7958 184.893 31.7958Z" fill="#27AE60"/>
<path d="M203.833 15.0361L204.008 17.4141C205.508 15.5751 207.52 14.6557 210.043 14.6557C212.268 14.6557 213.924 15.2961 215.011 16.577C216.097 17.858 216.654 19.773 216.68 22.3221V35.6195H211.071V22.4553C211.071 21.2885 210.813 20.4451 210.295 19.9252C209.778 19.3925 208.917 19.1262 207.714 19.1262C206.136 19.1262 204.952 19.7857 204.163 21.1046V35.6195H198.555V15.0361H203.833Z" fill="#27AE60"/>
<path d="M229.681 31.5675C230.716 31.5675 231.557 31.2885 232.204 30.7305C232.851 30.1725 233.187 29.4306 233.213 28.5048H238.472C238.459 29.8998 238.071 31.1807 237.308 32.3475C236.544 33.5016 235.497 34.402 234.164 35.0488C232.844 35.6829 231.383 36 229.778 36C226.777 36 224.409 35.0679 222.676 33.2036C220.942 31.3266 220.076 28.7394 220.076 25.442V25.0805C220.076 21.91 220.936 19.3798 222.656 17.4902C224.377 15.6005 226.738 14.6557 229.74 14.6557C232.366 14.6557 234.468 15.3912 236.046 16.8624C237.638 18.3209 238.446 20.2676 238.472 22.7026H233.213C233.187 21.6373 232.851 20.7749 232.204 20.1154C231.557 19.4432 230.703 19.1072 229.642 19.1072C228.336 19.1072 227.346 19.5764 226.673 20.5149C226.014 21.4407 225.684 22.9499 225.684 25.0425V25.6132C225.684 27.7311 226.014 29.253 226.673 30.1788C227.333 31.1046 228.336 31.5675 229.681 31.5675Z" fill="#27AE60"/>
<path d="M251.338 36C248.259 36 245.749 35.0742 243.809 33.2226C241.881 31.371 240.917 28.9042 240.917 25.8224V25.2898C240.917 23.2226 241.325 21.3773 242.14 19.754C242.955 18.1179 244.106 16.8624 245.594 15.9873C247.095 15.0996 248.802 14.6557 250.717 14.6557C253.589 14.6557 255.847 15.5434 257.49 17.319C259.145 19.0945 259.973 21.6119 259.973 24.8713V27.116H246.603C246.784 28.4604 247.327 29.5384 248.233 30.35C249.152 31.1617 250.309 31.5675 251.707 31.5675C253.867 31.5675 255.555 30.8003 256.772 29.2657L259.527 32.2904C258.686 33.4572 257.548 34.3703 256.112 35.0298C254.676 35.6766 253.084 36 251.338 36ZM250.698 19.1072C249.585 19.1072 248.679 19.475 247.981 20.2105C247.295 20.9461 246.855 21.9987 246.661 23.3684H254.462V22.9309C254.436 21.7134 254.1 20.7749 253.453 20.1154C252.806 19.4432 251.888 19.1072 250.698 19.1072Z" fill="#27AE60"/>
<path d="M274.547 29.9315C274.547 29.2594 274.204 28.733 273.519 28.3526C272.846 27.9594 271.759 27.6107 270.258 27.3063C265.265 26.279 262.768 24.1991 262.768 21.0666C262.768 19.2403 263.538 17.7185 265.077 16.501C266.63 15.2708 268.654 14.6557 271.151 14.6557C273.816 14.6557 275.944 15.2708 277.535 16.501C279.14 17.7311 279.942 19.3291 279.942 21.2949H274.334C274.334 20.5086 274.075 19.8618 273.557 19.3545C273.04 18.8345 272.231 18.5745 271.132 18.5745C270.187 18.5745 269.456 18.7838 268.939 19.2023C268.421 19.6208 268.163 20.1535 268.163 20.8003C268.163 21.409 268.454 21.9036 269.036 22.2841C269.631 22.6519 270.627 22.9753 272.024 23.2543C273.422 23.5206 274.599 23.825 275.556 24.1674C278.519 25.2327 280 27.078 280 29.7032C280 31.5802 279.179 33.1021 277.535 34.2689C275.892 35.423 273.771 36 271.17 36C269.411 36 267.846 35.6956 266.474 35.0869C265.116 34.4654 264.049 33.6221 263.272 32.5568C262.496 31.4788 262.108 30.3183 262.108 29.0755H267.425C267.477 30.052 267.846 30.8003 268.531 31.3202C269.217 31.8402 270.135 32.1002 271.287 32.1002C272.361 32.1002 273.169 31.9036 273.713 31.5105C274.269 31.1046 274.547 30.5783 274.547 29.9315Z" fill="#27AE60"/>
</svg>
