<svg width="51" height="51" viewBox="0 0 51 51" fill="none" xmlns="http://www.w3.org/2000/svg">
<path d="M0.184313 18.0638C-0.966526 11.537 3.3915 5.31314 9.91823 4.1623L32.4785 0.184313C39.0052 -0.966526 45.2291 3.3915 46.38 9.91823L50.3579 32.4785C51.5088 39.0052 47.1507 45.2291 40.624 46.38L18.0638 50.3579C11.537 51.5088 5.31314 47.1507 4.1623 40.624L0.184313 18.0638Z" fill="#1DB46F"/>
<path d="M25.4512 22.7697C20.9472 22.5927 19.322 21.7378 18.9222 19.9341C18.4636 17.8646 20.0373 16.0019 23.2056 15.2997C26.5427 14.5602 28.1377 15.8998 28.7762 18.2481L32.9194 17.3299C32.0644 14.0933 29.4311 11.5297 25.2982 11.4298L24.3767 7.27179L18.7524 8.51829L19.6613 12.6194C16.201 14.2229 13.8066 17.2633 14.6187 20.9277C15.5907 25.3136 19.6554 26.7034 25.1679 26.8163C30.1073 26.9167 31.415 28.3797 31.8063 30.1455C32.0967 31.4555 31.6409 33.7476 27.4977 34.6659C23.6357 35.5218 21.73 34.1116 21.0273 31.9169L16.9028 32.831C18.0493 36.9392 21.6415 38.5931 25.4135 38.5738L26.3267 42.6939L31.9509 41.4474L31.0462 37.3653C34.5463 35.8526 36.9767 33.0631 36.1141 29.1708C34.919 23.7787 29.9552 22.9467 25.4512 22.7697Z" fill="white"/>
</svg>
