<svg width="34" height="34" viewBox="0 0 34 34" fill="none" xmlns="http://www.w3.org/2000/svg">
<path d="M9.86899 0C4.43389 0 0 4.43389 0 9.86899V24.131C0 29.5661 4.43389 34 9.86899 34H24.131C29.5661 34 34 29.5661 34 24.131V9.86899C34 4.43389 29.5661 0 24.131 0H9.86899ZM9.86899 2.61538H24.131C28.1511 2.61538 31.3846 5.84375 31.3846 9.86899V24.131C31.3846 28.1511 28.1562 31.3846 24.131 31.3846H9.86899C5.84886 31.3846 2.61538 28.1562 2.61538 24.131V9.86899C2.61538 5.84886 5.84375 2.61538 9.86899 2.61538ZM26.8077 5.23077C25.7248 5.23077 24.8462 6.10938 24.8462 7.19231C24.8462 8.27524 25.7248 9.15385 26.8077 9.15385C27.8906 9.15385 28.7692 8.27524 28.7692 7.19231C28.7692 6.10938 27.8906 5.23077 26.8077 5.23077ZM17 7.84615C11.9582 7.84615 7.84615 11.9582 7.84615 17C7.84615 22.0418 11.9582 26.1538 17 26.1538C22.0418 26.1538 26.1538 22.0418 26.1538 17C26.1538 11.9582 22.0418 7.84615 17 7.84615ZM17 10.4615C20.6268 10.4615 23.5385 13.3732 23.5385 17C23.5385 20.6268 20.6268 23.5385 17 23.5385C13.3732 23.5385 10.4615 20.6268 10.4615 17C10.4615 13.3732 13.3732 10.4615 17 10.4615Z" fill="white"/>
</svg>
