<svg width="629" height="629" viewBox="0 0 629 629" fill="none" xmlns="http://www.w3.org/2000/svg">
<path d="M418.298 80.2982C390.848 95.998 371.487 122.403 348.026 143.601C318.845 169.862 283.327 188.072 244.97 196.437C213.52 203.242 180.661 203.343 150.356 214.049C91.2302 234.793 50.7352 296.36 49.7162 358.958C48.6972 421.556 84.3112 482.242 136.657 516.56C154.484 528.254 174.001 537.142 194.525 542.915C233.019 553.746 273.841 553.268 313.619 549.13C382.331 541.972 454.364 502.948 497.677 447.936C516.984 423.348 533.302 396.554 546.287 368.116C567.738 321.355 579.922 270.88 582.165 219.483C583.989 175.453 582.165 126.643 547.23 94.5513C512.295 62.4597 459.246 56.8616 418.298 80.2982Z" fill="#F9F9F9" fill-opacity="0.02"/>
<path d="M461.817 581.552C511.423 581.552 551.636 570.721 551.636 557.36C551.636 544 511.423 533.169 461.817 533.169C412.212 533.169 371.999 544 371.999 557.36C371.999 570.721 412.212 581.552 461.817 581.552Z" fill="#ECECEC"/>
<path d="M373.576 85.9214H108.352C102.134 85.9214 97.0927 90.9623 97.0927 97.1805V245.863C97.0927 252.082 102.134 257.123 108.352 257.123H373.576C379.794 257.123 384.835 252.082 384.835 245.863V97.1805C384.835 90.9623 379.794 85.9214 373.576 85.9214Z" fill="white"/>
<path d="M384.835 97.1805V101.634H97.0927V97.1805C97.0927 94.1886 98.2769 91.3183 100.387 89.1968C102.496 87.0753 105.36 85.8751 108.352 85.8585H373.626C375.106 85.8635 376.571 86.1605 377.936 86.7326C379.301 87.3048 380.54 88.1407 381.581 89.1925C382.622 90.2444 383.446 91.4915 384.004 92.8622C384.563 94.233 384.845 95.7004 384.835 97.1805Z" fill="#1DB46F"/>
<path d="M373.576 85.9214H108.352C102.134 85.9214 97.0927 90.9623 97.0927 97.1805V245.863C97.0927 252.082 102.134 257.123 108.352 257.123H373.576C379.794 257.123 384.835 252.082 384.835 245.863V97.1805C384.835 90.9623 379.794 85.9214 373.576 85.9214Z" stroke="#263238" stroke-width="1.52" stroke-linecap="round" stroke-linejoin="round"/>
<path d="M384.835 97.1805V101.634H97.0927V97.1805C97.0927 94.1886 98.2769 91.3183 100.387 89.1968C102.496 87.0753 105.36 85.8751 108.352 85.8585H373.626C375.106 85.8635 376.571 86.1605 377.936 86.7326C379.301 87.3048 380.54 88.1407 381.581 89.1925C382.622 90.2444 383.446 91.4915 384.004 92.8622C384.563 94.233 384.845 95.7004 384.835 97.1805V97.1805Z" stroke="#263238" stroke-width="1.52" stroke-linecap="round" stroke-linejoin="round"/>
<path d="M129.41 93.7713C129.413 94.3416 129.246 94.8998 128.931 95.3752C128.616 95.8507 128.167 96.2219 127.641 96.4418C127.115 96.6618 126.535 96.7206 125.975 96.6109C125.416 96.5012 124.901 96.2278 124.497 95.8254C124.093 95.423 123.817 94.9097 123.705 94.3506C123.593 93.7914 123.649 93.2115 123.867 92.6844C124.084 92.1572 124.454 91.7066 124.928 91.3895C125.402 91.0724 125.959 90.9031 126.53 90.9031C127.291 90.9031 128.022 91.2049 128.562 91.7424C129.102 92.2799 129.407 93.0095 129.41 93.7713Z" fill="#263238"/>
<path d="M144.444 93.7713C144.446 94.3416 144.28 94.8998 143.965 95.3752C143.65 95.8507 143.2 96.2219 142.674 96.4418C142.148 96.6618 141.568 96.7206 141.009 96.6109C140.449 96.5012 139.935 96.2278 139.531 95.8254C139.126 95.423 138.851 94.9097 138.739 94.3506C138.626 93.7914 138.683 93.2115 138.9 92.6844C139.118 92.1572 139.487 91.7066 139.961 91.3895C140.435 91.0724 140.993 90.9031 141.563 90.9031C142.325 90.9031 143.056 91.2049 143.596 91.7424C144.136 92.2799 144.441 93.0095 144.444 93.7713Z" fill="#263238"/>
<path d="M156.595 96.6521C158.186 96.6521 159.476 95.3624 159.476 93.7713C159.476 92.1803 158.186 90.8905 156.595 90.8905C155.004 90.8905 153.715 92.1803 153.715 93.7713C153.715 95.3624 155.004 96.6521 156.595 96.6521Z" fill="#263238"/>
<path d="M200.148 114.101H118.793C116.229 114.101 114.151 116.179 114.151 118.743V157.879C114.151 160.443 116.229 162.521 118.793 162.521H200.148C202.712 162.521 204.79 160.443 204.79 157.879V118.743C204.79 116.179 202.712 114.101 200.148 114.101Z" stroke="#263238" stroke-width="1.52" stroke-linecap="round" stroke-linejoin="round"/>
<path d="M119.485 156.432H198.072" stroke="#263238" stroke-width="1.52" stroke-linecap="round" stroke-linejoin="round"/>
<path d="M134.443 147.186H125.322V156.306H134.443V147.186Z" fill="#1DB46F" stroke="#263238" stroke-width="1.52" stroke-miterlimit="10"/>
<path d="M147.79 135.197H138.67V156.432H147.79V135.197Z" fill="#1DB46F" stroke="#263238" stroke-width="1.52" stroke-miterlimit="10"/>
<path d="M162.823 138.845H153.703V156.646H162.823V138.845Z" fill="#1DB46F" stroke="#263238" stroke-width="1.52" stroke-miterlimit="10"/>
<path d="M178.624 121.12H169.503V156.03H178.624V121.12Z" fill="#1DB46F" stroke="#263238" stroke-width="1.52" stroke-miterlimit="10"/>
<path d="M194.411 121.397H185.291V156.307H194.411V121.397Z" fill="#1DB46F" stroke="#263238" stroke-width="1.52" stroke-miterlimit="10"/>
<path d="M317.167 165.024C331.25 165.024 342.667 153.608 342.667 139.525C342.667 125.442 331.25 114.025 317.167 114.025C303.084 114.025 291.667 125.442 291.667 139.525C291.667 153.608 303.084 165.024 317.167 165.024Z" fill="#1DB46F" stroke="#263238" stroke-width="1.52" stroke-miterlimit="10"/>
<path d="M319.256 155.426V158.043H314.979V155.426C313.222 155.001 311.668 153.977 310.585 152.531C309.501 151.084 308.955 149.306 309.041 147.5V146.318L313.884 145.79V147.048C313.884 149.476 315.142 150.947 317.117 150.947C317.546 150.983 317.977 150.925 318.381 150.779C318.786 150.632 319.154 150.399 319.459 150.097C319.765 149.794 320.002 149.429 320.154 149.027C320.306 148.624 320.368 148.194 320.338 147.765C320.338 145.437 318.161 143.437 315.595 141.311C312.551 138.795 309.519 135.801 309.519 131.574C309.519 127.347 311.507 124.492 314.979 123.636V121.007H319.256V123.611C322.766 124.429 324.804 127.385 324.804 131.599V132.455L319.96 132.971V132.09C319.96 129.574 318.966 128.19 317.205 128.19C315.444 128.19 314.45 129.285 314.45 131.373C314.45 133.7 316.689 135.65 319.205 137.826C322.2 140.342 325.282 143.337 325.282 147.563C325.356 149.372 324.793 151.149 323.692 152.585C322.591 154.022 321.021 155.027 319.256 155.426Z" fill="#263238"/>
<path d="M112.037 187.253H119.485" stroke="#263238" stroke-width="1.52" stroke-linecap="round" stroke-linejoin="round"/>
<path d="M112.037 201.645H119.485" stroke="#263238" stroke-width="1.52" stroke-linecap="round" stroke-linejoin="round"/>
<path d="M112.037 216.049H119.485" stroke="#263238" stroke-width="1.52" stroke-linecap="round" stroke-linejoin="round"/>
<path d="M112.037 230.44H119.485" stroke="#263238" stroke-width="1.52" stroke-linecap="round" stroke-linejoin="round"/>
<path d="M135.902 241.31V235.523" stroke="#263238" stroke-width="1.52" stroke-linecap="round" stroke-linejoin="round"/>
<path d="M147.702 241.31V235.523" stroke="#263238" stroke-width="1.52" stroke-linecap="round" stroke-linejoin="round"/>
<path d="M159.502 241.31V235.523" stroke="#263238" stroke-width="1.52" stroke-linecap="round" stroke-linejoin="round"/>
<path d="M171.315 241.31V235.523" stroke="#263238" stroke-width="1.52" stroke-linecap="round" stroke-linejoin="round"/>
<path d="M183.115 241.31V235.523" stroke="#263238" stroke-width="1.52" stroke-linecap="round" stroke-linejoin="round"/>
<path d="M194.915 241.31V235.523" stroke="#263238" stroke-width="1.52" stroke-linecap="round" stroke-linejoin="round"/>
<path d="M206.715 241.31V235.523" stroke="#263238" stroke-width="1.52" stroke-linecap="round" stroke-linejoin="round"/>
<path d="M218.527 241.31V235.523" stroke="#263238" stroke-width="1.52" stroke-linecap="round" stroke-linejoin="round"/>
<path d="M230.328 241.31V235.523" stroke="#263238" stroke-width="1.52" stroke-linecap="round" stroke-linejoin="round"/>
<path d="M242.128 241.31V235.523" stroke="#263238" stroke-width="1.52" stroke-linecap="round" stroke-linejoin="round"/>
<path d="M253.928 241.31V235.523" stroke="#263238" stroke-width="1.52" stroke-linecap="round" stroke-linejoin="round"/>
<path d="M265.74 241.31V235.523" stroke="#263238" stroke-width="1.52" stroke-linecap="round" stroke-linejoin="round"/>
<path d="M277.54 241.31V235.523" stroke="#263238" stroke-width="1.52" stroke-linecap="round" stroke-linejoin="round"/>
<path d="M289.34 241.31V235.523" stroke="#263238" stroke-width="1.52" stroke-linecap="round" stroke-linejoin="round"/>
<path d="M301.141 241.31V235.523" stroke="#263238" stroke-width="1.52" stroke-linecap="round" stroke-linejoin="round"/>
<path d="M312.5 241.31V235.523" stroke="#263238" stroke-width="1.52" stroke-linecap="round" stroke-linejoin="round"/>
<path d="M323.86 241.31V235.523" stroke="#263238" stroke-width="1.52" stroke-linecap="round" stroke-linejoin="round"/>
<path d="M335.207 241.31V235.523" stroke="#263238" stroke-width="1.52" stroke-linecap="round" stroke-linejoin="round"/>
<path d="M365.248 178.447V234.378C365.248 238.215 361.348 241.31 356.542 241.31H120.768C119.332 241.36 117.904 241.079 116.595 240.488C115.286 239.897 114.131 239.011 113.22 237.9C112.433 236.892 111.992 235.657 111.962 234.378V178.447C111.962 174.673 115.862 171.516 120.667 171.516H356.542C361.348 171.516 365.248 174.61 365.248 178.447Z" stroke="#1DB46F" stroke-width="1.52" stroke-linecap="round" stroke-linejoin="round"/>
<path d="M293.491 70.1209L218.225 171.516L189.442 210.287L157.992 190.26L119.51 241.31H118.956C117.75 241.311 116.564 240.997 115.516 240.399C114.468 239.801 113.594 238.94 112.981 237.9L156.218 180.523L187.668 200.513L209.193 171.579L287.679 65.9066L293.491 70.1209Z" fill="#219653"/>
<path d="M274.395 71.4041L302.059 54.6349L294.41 83.6444L289.529 70.2216L274.395 71.4041Z" fill="#219653"/>
<path d="M536.197 390.634H93.7711L44.1807 434.727" stroke="#27AE60" stroke-width="2.10526" stroke-linecap="round" stroke-linejoin="round"/>
<path d="M94.0484 359.763V274.03" stroke="#27AE60" stroke-width="2.10526" stroke-linecap="round" stroke-linejoin="round"/>
<path d="M94.0484 385.652V369.072" stroke="#27AE60" stroke-width="2.10526" stroke-linecap="round" stroke-linejoin="round"/>
<path d="M509.564 182.058C509.564 182.058 509.564 176.875 502.306 169.629C495.047 162.383 490.392 158.231 490.392 158.231C490.392 158.231 486.757 170.144 493.5 177.403C498.453 182.516 503.826 187.204 509.564 191.417V182.058Z" fill="#1DB46F"/>
<path d="M499.035 214.426C499.035 214.426 499.035 209.243 491.776 201.984C484.517 194.726 479.863 190.587 479.863 190.587C479.863 190.587 476.24 202.5 482.97 209.759C487.929 214.87 493.302 219.561 499.035 223.786V214.426Z" fill="#1DB46F"/>
<path d="M509.099 190.889C509.099 190.889 509.652 185.731 517.628 179.278C525.604 172.824 530.686 169.214 530.686 169.214C530.686 169.214 533.026 181.479 525.566 187.945C520.1 192.496 514.264 196.582 508.117 200.16L509.099 190.889Z" fill="#1DB46F"/>
<path d="M496.38 229.107C496.38 229.107 497.475 224.075 506.079 218.464C514.684 212.854 520.106 209.809 520.106 209.809C520.106 209.809 521.15 222.226 513.086 227.912C507.176 231.862 500.944 235.309 494.455 238.215L496.38 229.107Z" fill="#1DB46F"/>
<path d="M498.783 270.759C498.783 270.759 498.783 265.576 506.029 258.33C513.275 251.084 517.942 246.933 517.942 246.933C517.942 246.933 521.578 258.859 514.835 266.105C509.89 271.225 504.52 275.917 498.783 280.131V270.759Z" fill="#1DB46F"/>
<path d="M498.657 280.937C498.657 280.937 499.387 275.804 493.235 267.602C487.084 259.4 483.071 254.619 483.071 254.619C483.071 254.619 477.812 265.941 483.435 274.043C487.616 279.797 492.27 285.192 497.349 290.17L498.657 280.937Z" fill="#1DB46F"/>
<path d="M491.5 311.066C491.5 311.066 491.5 305.895 498.758 298.637C506.017 291.378 510.672 287.315 510.672 287.315C510.672 287.315 514.307 299.228 507.564 306.474C502.612 311.591 497.238 316.284 491.5 320.501V311.066Z" fill="#1DB46F"/>
<path d="M496.342 338.402C496.342 338.402 495.084 333.37 500.23 324.564C505.375 315.758 508.872 310.537 508.872 310.537C508.872 310.537 515.388 321.155 510.721 329.873C507.22 336.069 503.206 341.96 498.72 347.485L496.342 338.402Z" fill="#1DB46F"/>
<path d="M510.218 180.775C509.852 186.166 509.188 191.533 508.231 196.852C505.362 211.671 498.167 221.232 495.324 234.592C492.48 247.952 500.695 265.224 498.494 282.396C496.292 299.568 489.587 309.141 491.474 320.614C493.361 332.087 503.425 363.134 503.425 363.134" stroke="#263238" stroke-width="1.78978" stroke-linecap="round" stroke-linejoin="round"/>
<path d="M509.036 194.336L516.849 188.323" stroke="#263238" stroke-width="1.78978" stroke-linecap="round" stroke-linejoin="round"/>
<path d="M509.388 187.429L506.13 181.605" stroke="#263238" stroke-width="1.78978" stroke-linecap="round" stroke-linejoin="round"/>
<path d="M495.764 233.988C495.764 233.988 502.305 229.069 509.036 224.163" stroke="#263238" stroke-width="1.78978" stroke-linecap="round" stroke-linejoin="round"/>
<path d="M499.035 223.723C499.035 223.723 493.575 213.03 487.398 205.935" stroke="#263238" stroke-width="1.78978" stroke-linecap="round" stroke-linejoin="round"/>
<path d="M499.035 278.131C502.783 271.248 507.508 264.943 513.062 259.412" stroke="#263238" stroke-width="1.78978" stroke-linecap="round" stroke-linejoin="round"/>
<path d="M497.764 285.402C495.758 280.722 493.368 276.216 490.619 271.929C486.845 266.293 486.241 265.564 486.241 265.564" stroke="#263238" stroke-width="1.78978" stroke-linecap="round" stroke-linejoin="round"/>
<path d="M491.5 320.601C493.161 316.482 495.133 312.495 497.4 308.675C499.663 305.119 502.212 301.753 505.023 298.611" stroke="#263238" stroke-width="1.78978" stroke-linecap="round" stroke-linejoin="round"/>
<path d="M498.707 347.422C498.328 343.491 499.005 339.53 500.67 335.949C503.4 330.678 506.482 323.759 507.765 321.042" stroke="#263238" stroke-width="1.78978" stroke-linecap="round" stroke-linejoin="round"/>
<path d="M462.062 251.273C462.062 251.273 461.496 248.04 465.258 242.693C469.019 237.347 471.548 234.24 471.548 234.24C471.548 234.24 475.108 241.31 471.673 246.593C469.122 250.332 466.26 253.85 463.119 257.11L462.062 251.273Z" fill="#1DB46F"/>
<path d="M472.177 270.47C472.177 270.47 471.611 267.212 475.372 261.878C479.133 256.544 481.662 253.437 481.662 253.437C481.662 253.437 485.222 260.519 481.788 265.79C479.24 269.532 476.378 273.05 473.233 276.307L472.177 270.47Z" fill="#1DB46F"/>
<path d="M463.308 256.758C463.308 256.758 462.427 253.588 456.703 250.468C450.979 247.348 447.419 245.562 447.419 245.562C447.419 245.562 447.281 253.449 452.677 256.758C456.597 259.019 460.7 260.946 464.943 262.519L463.308 256.758Z" fill="#1DB46F"/>
<path d="M475.435 279.339C475.435 279.339 474.177 276.282 468.189 273.728C462.201 271.174 458.439 269.828 458.439 269.828C458.439 269.828 459.131 277.716 464.83 280.408C468.967 282.243 473.251 283.728 477.636 284.849L475.435 279.339Z" fill="#1DB46F"/>
<path d="M478.454 305.694C478.454 305.694 477.888 302.448 472.554 298.687C467.22 294.926 463.836 292.825 463.836 292.825C463.836 292.825 462.855 300.712 467.874 304.512C471.532 307.169 475.408 309.513 479.461 311.519L478.454 305.694Z" fill="#1DB46F"/>
<path d="M479.624 312.097C479.624 312.097 478.605 308.965 481.574 303.153C484.543 297.341 486.606 293.907 486.606 293.907C486.606 293.907 491.135 300.398 488.493 306.122C486.478 310.184 484.13 314.072 481.473 317.746L479.624 312.097Z" fill="#1DB46F"/>
<path d="M488.731 338.301C488.731 338.301 489.109 335.031 494.216 330.967C499.324 326.904 502.582 324.677 502.582 324.677C502.582 324.677 504.016 332.477 499.223 336.578C495.723 339.44 491.99 342.007 488.065 344.252L488.731 338.301Z" fill="#1DB46F"/>
<path d="M487.386 330.225C487.386 330.225 486.82 326.967 481.486 323.205C476.152 319.444 472.781 317.356 472.781 317.356C472.781 317.356 471.799 325.243 476.806 329.043C480.47 331.698 484.35 334.042 488.405 336.05L487.386 330.225Z" fill="#1DB46F"/>
<path d="M487.31 347.887C487.31 347.887 487.599 344.591 483.385 339.61C479.171 334.628 476.441 331.722 476.441 331.722C476.441 331.722 473.497 339.081 477.384 344.05C480.256 347.555 483.411 350.815 486.819 353.8L487.31 347.887Z" fill="#1DB46F"/>
<path d="M461.496 250.518C462.315 253.863 463.319 257.16 464.503 260.393C467.9 269.363 473.435 274.584 476.68 282.66C479.926 290.736 476.68 302.448 479.888 312.978C483.096 323.507 488.38 328.753 488.418 336.188C488.455 343.623 485.587 364.166 485.587 364.166" stroke="#263238" stroke-width="1.78978" stroke-linecap="round" stroke-linejoin="round"/>
<path d="M463.723 258.909L458.175 256.003" stroke="#263238" stroke-width="1.78978" stroke-linecap="round" stroke-linejoin="round"/>
<path d="M462.741 254.619L464.163 250.619" stroke="#263238" stroke-width="1.78978" stroke-linecap="round" stroke-linejoin="round"/>
<path d="M476.353 282.32C476.353 282.32 471.711 279.955 466.969 277.603" stroke="#263238" stroke-width="1.78978" stroke-linecap="round" stroke-linejoin="round"/>
<path d="M473.183 276.307C474.548 272.001 476.347 267.845 478.555 263.903" stroke="#263238" stroke-width="1.78978" stroke-linecap="round" stroke-linejoin="round"/>
<path d="M479.095 310.374C475.999 306.466 472.356 303.025 468.276 300.159" stroke="#263238" stroke-width="1.78978" stroke-linecap="round" stroke-linejoin="round"/>
<path d="M480.681 314.802C481.416 311.659 482.413 308.582 483.662 305.606C485.411 301.643 485.713 301.128 485.713 301.128" stroke="#263238" stroke-width="1.78978" stroke-linecap="round" stroke-linejoin="round"/>
<path d="M488.178 341.799C489.978 339.563 491.974 337.491 494.141 335.609C495.521 334.587 496.817 333.455 498.016 332.225" stroke="#263238" stroke-width="1.78978" stroke-linecap="round" stroke-linejoin="round"/>
<path d="M488.417 336.188C486.914 333.788 485.232 331.504 483.385 329.357C481.579 327.384 479.614 325.562 477.511 323.91" stroke="#263238" stroke-width="1.78978" stroke-linecap="round" stroke-linejoin="round"/>
<path d="M486.845 353.8C486.645 351.282 485.776 348.863 484.329 346.793C482.039 343.774 479.297 339.773 478.265 338.201" stroke="#263238" stroke-width="1.78978" stroke-linecap="round" stroke-linejoin="round"/>
<path d="M510.973 399.591H477.938C477.282 399.591 476.651 399.335 476.181 398.877C475.711 398.418 475.439 397.794 475.422 397.138L470.68 360.581H518.131L513.389 397.138C513.373 397.777 513.115 398.387 512.666 398.842C512.218 399.298 511.612 399.566 510.973 399.591Z" fill="#263238"/>
<path d="M517.754 366.757H470.73C469.751 366.761 468.811 366.376 468.115 365.687C467.419 364.999 467.025 364.063 467.018 363.084C467.034 362.107 467.429 361.174 468.119 360.482C468.809 359.79 469.74 359.392 470.717 359.373H517.754C518.24 359.371 518.723 359.466 519.173 359.651C519.623 359.836 520.032 360.108 520.377 360.452C520.722 360.795 520.995 361.204 521.182 361.653C521.369 362.103 521.465 362.585 521.465 363.071C521.463 363.557 521.366 364.038 521.178 364.486C520.991 364.934 520.717 365.341 520.372 365.683C520.028 366.025 519.619 366.296 519.17 366.481C518.72 366.665 518.239 366.759 517.754 366.757Z" fill="#263238"/>
<path d="M411.743 220.54C411.741 230.864 408.242 240.884 401.815 248.964C395.389 257.045 386.415 262.71 376.356 265.035H376.217C375.022 265.3 373.827 265.539 372.594 265.715C370.431 266.023 368.25 266.178 366.065 266.18C354.125 266.137 342.676 261.421 334.171 253.041C325.665 244.661 320.779 233.284 320.559 221.346C320.338 209.407 324.801 197.857 332.992 189.169C341.182 180.481 352.449 175.345 364.38 174.862C364.795 174.862 365.235 174.862 365.638 174.862C365.771 174.85 365.906 174.85 366.04 174.862C366.195 174.85 366.351 174.85 366.506 174.862C372.668 174.902 378.757 176.208 384.394 178.699C392.526 182.261 399.443 188.116 404.3 195.547C409.157 202.977 411.744 211.663 411.743 220.54Z" fill="#1DB46F"/>
<path opacity="0.4" d="M384.42 178.711C331.672 175.969 331.42 234.529 331.42 234.529C331.42 234.529 323.369 215.42 336.515 194.273C343.862 182.435 356.643 177.214 366.531 174.9C372.692 174.932 378.781 176.229 384.42 178.711Z" fill="white"/>
<path d="M411.743 220.54C411.743 230.89 408.227 240.933 401.773 249.023C395.319 257.114 386.308 262.773 376.217 265.073C372.888 265.84 369.482 266.224 366.065 266.218C353.951 266.441 342.244 261.843 333.519 253.435C324.795 245.027 319.768 233.497 319.544 221.383C319.321 209.268 323.919 197.561 332.327 188.837C340.735 180.112 352.265 175.086 364.38 174.862C364.933 174.862 365.499 174.862 366.065 174.862C378.179 174.865 389.795 179.679 398.361 188.244C406.926 196.81 411.74 208.426 411.743 220.54V220.54Z" stroke="#263238" stroke-width="1.52" stroke-linecap="round" stroke-linejoin="round"/>
<path d="M411.744 220.54C411.743 230.89 408.228 240.933 401.774 249.023C395.319 257.114 386.309 262.773 376.218 265.073C375.664 265.073 375.098 265.073 374.532 265.073C363.32 265.044 352.51 260.892 344.16 253.409C335.81 245.926 330.503 235.634 329.249 224.492C327.995 213.35 330.882 202.136 337.36 192.985C343.838 183.833 353.455 177.383 364.38 174.862C364.933 174.862 365.5 174.862 366.066 174.862C378.179 174.865 389.796 179.679 398.361 188.244C406.927 196.81 411.74 208.426 411.744 220.54V220.54Z" stroke="#263238" stroke-width="1.52" stroke-linecap="round" stroke-linejoin="round"/>
<path d="M381.803 249.084L382.985 253.915L375.085 255.839L373.902 251.021C366.833 251.021 361.159 246.43 359.347 239.058L358.806 236.869L367.524 233.711L368.078 235.988C369.172 240.467 372.129 242.618 375.815 241.712C376.624 241.586 377.396 241.286 378.078 240.833C378.76 240.38 379.335 239.784 379.764 239.087C380.194 238.39 380.467 237.608 380.565 236.795C380.662 235.982 380.583 235.157 380.331 234.378C379.274 230.076 374.343 227.384 368.631 224.603C361.876 221.333 354.907 217.181 352.995 209.369C351.133 201.745 353.473 195.393 359.498 192.248L358.316 187.417L366.204 185.492L367.386 190.31C374.242 190.21 379.35 194.726 381.224 202.525L381.614 204.111L372.909 207.268L372.468 205.519C371.311 200.777 368.871 198.777 365.625 199.569C362.379 200.362 361.033 202.84 361.977 206.689C363.033 210.992 368.028 213.583 373.676 216.477C380.356 219.861 387.401 223.899 389.313 231.698C391.238 239.209 388.168 245.901 381.803 249.084Z" stroke="#263238" stroke-width="1.52" stroke-miterlimit="10"/>
<path opacity="0.3" d="M381.803 249.084L382.985 253.915L375.085 255.839L373.902 251.021C366.833 251.021 361.159 246.43 359.347 239.058L358.806 236.869L367.524 233.711L368.078 235.988C369.172 240.467 372.129 242.618 375.815 241.712C376.624 241.586 377.396 241.286 378.078 240.833C378.76 240.38 379.335 239.784 379.764 239.087C380.194 238.39 380.467 237.608 380.565 236.795C380.662 235.982 380.583 235.157 380.331 234.378C379.274 230.076 374.343 227.384 368.631 224.603C361.876 221.333 354.907 217.181 352.995 209.369C351.133 201.745 353.473 195.393 359.498 192.248L358.316 187.417L366.204 185.492L367.386 190.31C374.242 190.21 379.35 194.726 381.224 202.525L381.614 204.111L372.909 207.268L372.468 205.519C371.311 200.777 368.871 198.777 365.625 199.569C362.379 200.362 361.033 202.84 361.977 206.689C363.033 210.992 368.028 213.583 373.676 216.477C380.356 219.861 387.401 223.899 389.313 231.698C391.238 239.209 388.168 245.901 381.803 249.084Z" fill="black"/>
<path d="M342.717 259.815L352.366 259.374" stroke="#263238" stroke-width="1.52" stroke-linecap="round" stroke-linejoin="round"/>
<path d="M338.075 256.607L346.491 255.89" stroke="#263238" stroke-width="1.52" stroke-linecap="round" stroke-linejoin="round"/>
<path d="M334.301 253.223L342.717 252.506" stroke="#263238" stroke-width="1.52" stroke-linecap="round" stroke-linejoin="round"/>
<path d="M333.143 188.864H340.352" stroke="#263238" stroke-width="1.52" stroke-linecap="round" stroke-linejoin="round"/>
<path d="M336.704 185.542L343.887 185.215" stroke="#263238" stroke-width="1.52" stroke-linecap="round" stroke-linejoin="round"/>
<path d="M341.207 182.209L348.78 181.492" stroke="#263238" stroke-width="1.52" stroke-linecap="round" stroke-linejoin="round"/>
<path opacity="0.3" d="M376.356 265.035H376.217C372.888 265.802 369.482 266.186 366.065 266.18C354.125 266.137 342.676 261.421 334.171 253.041C325.665 244.661 320.779 233.284 320.559 221.346C320.338 209.407 324.801 197.857 332.992 189.169C341.182 180.481 352.449 175.345 364.38 174.862C364.795 174.862 365.235 174.862 365.638 174.862C354.504 178.372 335.823 187.341 330.829 206.048C323.771 232.629 339.66 262.809 376.356 265.035Z" fill="black"/>
<path opacity="0.1" d="M411.744 220.54C411.742 230.864 408.242 240.884 401.816 248.964C395.389 257.045 386.415 262.71 376.356 265.035H376.218C375.023 265.3 373.828 265.539 372.595 265.715L384.42 178.674C392.55 182.241 399.465 188.101 404.318 195.537C409.171 202.972 411.751 211.661 411.744 220.54Z" fill="black"/>
<path d="M437.658 148.633C434.041 153.742 428.799 157.474 422.788 159.219C416.776 160.965 410.351 160.621 404.56 158.244L404.397 158.168C403.538 157.791 402.698 157.371 401.881 156.91C400.957 156.414 400.066 155.859 399.214 155.25C393.641 150.994 389.891 144.782 388.723 137.868C387.554 130.954 389.053 123.854 392.917 118.003C396.781 112.152 402.722 107.986 409.539 106.346C416.357 104.706 423.542 105.715 429.645 109.169L430.261 109.559C430.55 109.723 430.827 109.924 431.116 110.125C431.406 110.327 431.959 110.742 432.374 111.069C437.873 115.48 441.482 121.823 442.464 128.803C443.446 135.784 441.727 142.876 437.658 148.633Z" fill="#1DB46F"/>
<path opacity="0.4" d="M395.968 149.01C395.968 149.01 391.452 135.713 397.452 125.926C405 113.66 416.561 108.062 432.299 111.081C432.299 111.081 423.77 105.32 409.491 109.408C395.213 113.497 387.552 133.147 395.968 149.01Z" fill="white"/>
<path d="M437.658 148.645C434.038 153.75 428.794 157.477 422.783 159.218C416.772 160.959 410.348 160.611 404.56 158.231C402.65 157.451 400.835 156.455 399.151 155.262C393.543 150.961 389.794 144.677 388.671 137.699C387.549 130.722 389.138 123.579 393.114 117.735C397.089 111.892 403.149 107.791 410.052 106.273C416.954 104.755 424.176 105.935 430.236 109.572C430.513 109.735 430.802 109.924 431.079 110.125C437.05 114.368 441.095 120.805 442.328 128.026C443.562 135.246 441.882 142.661 437.658 148.645Z" stroke="#263238" stroke-width="1.52" stroke-linecap="round" stroke-linejoin="round"/>
<path d="M437.658 148.645C434.037 153.75 428.794 157.477 422.783 159.218C416.771 160.959 410.348 160.611 404.56 158.231L403.717 157.678C398.252 153.716 394.422 147.894 392.95 141.306C391.478 134.719 392.464 127.82 395.722 121.909C398.981 115.997 404.288 111.48 410.644 109.208C417 106.936 423.968 107.066 430.236 109.572C430.512 109.735 430.802 109.924 431.078 110.125C437.049 114.368 441.095 120.805 442.328 128.026C443.561 135.246 441.882 142.661 437.658 148.645Z" stroke="#263238" stroke-width="1.52" stroke-linecap="round" stroke-linejoin="round"/>
<path d="M412.888 152.319L411.794 155.111L407.215 153.312L408.309 150.507C406.61 149.311 405.38 147.561 404.829 145.558C404.278 143.554 404.441 141.421 405.29 139.525L405.793 138.267L411.203 139.739L410.687 141.072C409.668 143.664 410.36 145.752 412.498 146.595C412.942 146.816 413.429 146.937 413.925 146.952C414.42 146.966 414.913 146.872 415.369 146.677C415.825 146.482 416.233 146.191 416.565 145.822C416.897 145.454 417.145 145.018 417.291 144.544C418.273 142.028 416.776 138.996 414.926 135.638C412.737 131.662 410.75 127.184 412.524 122.655C414.297 118.126 417.644 115.912 421.707 116.466L422.814 113.673L427.381 115.472L426.286 118.252C429.708 120.592 430.651 124.542 428.878 129.134L428.513 130.039L423.103 128.568L423.506 127.549C424.588 124.806 424.085 122.957 422.248 122.215C420.411 121.472 418.839 122.215 417.958 124.467C416.977 126.983 418.549 129.977 420.323 133.373C422.449 137.386 424.512 141.839 422.739 146.356C422.066 148.353 420.708 150.048 418.905 151.14C417.102 152.231 414.97 152.649 412.888 152.319V152.319Z" stroke="#263238" stroke-width="1.52" stroke-miterlimit="10"/>
<path opacity="0.3" d="M412.888 152.319L411.794 155.111L407.215 153.312L408.309 150.507C406.61 149.311 405.38 147.561 404.829 145.558C404.278 143.554 404.441 141.421 405.29 139.525L405.793 138.267L411.203 139.739L410.687 141.072C409.668 143.664 410.36 145.752 412.498 146.595C412.942 146.816 413.429 146.937 413.925 146.952C414.42 146.966 414.913 146.872 415.369 146.677C415.825 146.482 416.233 146.191 416.565 145.822C416.897 145.454 417.145 145.018 417.291 144.544C418.273 142.028 416.776 138.996 414.926 135.638C412.737 131.662 410.75 127.184 412.524 122.655C414.297 118.126 417.644 115.912 421.707 116.466L422.814 113.673L427.381 115.472L426.286 118.252C429.708 120.592 430.651 124.542 428.878 129.134L428.513 130.039L423.103 128.568L423.506 127.549C424.588 124.806 424.085 122.957 422.248 122.215C420.411 121.472 418.839 122.215 417.958 124.467C416.977 126.983 418.549 129.977 420.323 133.373C422.449 137.386 424.512 141.839 422.739 146.356C422.066 148.353 420.708 150.048 418.905 151.14C417.102 152.231 414.97 152.649 412.888 152.319Z" fill="black"/>
<path opacity="0.3" d="M429.582 109.182C422.034 107.836 412.473 107.094 407.315 110.44C397.842 116.516 391.942 124.177 392.03 136.594C392.118 149.01 403.717 157.715 403.717 157.715L404.396 158.206C402.546 157.433 400.787 156.459 399.151 155.3C393.578 151.044 389.828 144.832 388.66 137.918C387.491 131.004 388.99 123.905 392.854 118.053C396.718 112.202 402.659 108.036 409.476 106.396C416.294 104.756 423.48 105.765 429.582 109.22V109.182Z" fill="black"/>
<path opacity="0.1" d="M437.658 148.633C434.041 153.742 428.799 157.474 422.788 159.219C416.776 160.965 410.351 160.621 404.56 158.244L404.396 158.168C403.537 157.791 402.698 157.371 401.88 156.91L432.299 111.081C437.806 115.481 441.427 121.816 442.423 128.795C443.419 135.773 441.715 142.868 437.658 148.633Z" fill="black"/>
<path d="M423.418 502.898C411.708 516.983 397.749 529.034 382.105 538.562C377.231 541.479 372.19 544.108 367.009 546.437C331.269 562.502 290.535 563.546 252.443 554.313C172.346 534.902 129.851 464.202 124.454 385.715C123.008 364.505 119.762 341.597 128.354 321.419C136.946 301.241 154.319 288.711 173.969 280.006C188.235 273.653 203.645 269.388 217.647 265.903C242.986 259.644 269.713 262.402 293.24 273.703C309.707 281.515 321.432 295.089 335.282 306.524C336.75 307.732 338.226 308.935 339.711 310.135C353.702 321.396 368.41 331.738 383.741 341.094C407.026 355.297 430.865 368.695 445.747 392.546C469.486 430.563 449.459 471.951 423.418 502.898Z" fill="#1DB46F"/>
<path opacity="0.4" d="M423.418 502.898C411.708 516.983 397.749 529.034 382.105 538.562C377.231 541.479 372.19 544.108 367.009 546.437C331.269 562.502 290.535 563.546 252.443 554.313C172.346 534.902 129.851 464.202 124.454 385.715C123.008 364.505 119.762 341.597 128.354 321.419C136.946 301.241 154.319 288.711 173.969 280.006C188.235 273.653 203.645 269.388 217.647 265.903C242.986 259.644 269.713 262.402 293.24 273.703C309.707 281.515 321.432 295.089 335.282 306.524C336.75 307.732 338.226 308.935 339.711 310.135C353.702 321.396 368.41 331.738 383.741 341.094C407.026 355.297 430.865 368.695 445.747 392.546C469.486 430.563 449.459 471.951 423.418 502.898Z" fill="white"/>
<path d="M339.66 310.135C338.176 308.944 336.7 307.736 335.232 306.512C321.394 295.051 309.645 281.515 293.19 273.703C269.661 262.408 242.936 259.65 217.597 265.903C184.297 274.169 142.997 286.899 128.279 321.432C119.687 341.56 122.932 364.505 124.392 385.715C129.851 464.202 172.346 534.902 252.443 554.312C296.02 564.88 343.019 561.986 382.105 538.562C397.749 529.034 411.708 516.983 423.418 502.898C449.459 471.951 469.486 430.563 445.773 392.546C430.903 368.644 407.064 355.297 383.766 341.094C368.409 331.741 353.676 321.399 339.66 310.135V310.135Z" stroke="#263238" stroke-width="1.52" stroke-miterlimit="10"/>
<path d="M218.327 450.087C211.658 452.105 205.186 454.724 198.991 457.912" stroke="#263238" stroke-width="1.52" stroke-linecap="round" stroke-linejoin="round"/>
<path d="M259.148 442.313C249.407 443.156 239.738 444.69 230.214 446.905" stroke="#263238" stroke-width="1.52" stroke-linecap="round" stroke-linejoin="round"/>
<path d="M250.657 440.3C250.657 440.3 213.068 418.436 167.704 435.96" stroke="#263238" stroke-width="1.52" stroke-linecap="round" stroke-linejoin="round"/>
<path opacity="0.1" d="M423.418 502.898C411.709 516.983 397.749 529.034 382.106 538.562C377.231 541.479 372.191 544.108 367.01 546.437C362.92 545.185 358.901 543.711 354.971 542.022C331.496 531.958 311.796 514.937 292.549 498.155C280.937 488.091 269.137 477.776 255.236 471.146C236.438 462.258 215.053 460.496 195.054 466.19C205.397 454.515 219.46 446.777 234.857 444.288C224.919 435.243 211.093 431.444 197.658 431.205C184.222 430.966 176.825 432.614 163.692 435.557C168.082 427.481 179.731 420.172 188.927 420.386C180.185 420.27 171.457 419.653 162.786 418.537C150.923 416.624 145.614 402.661 143.841 390.785C138.934 358.077 143.903 323.243 161.754 295.441C165.289 289.896 169.377 284.724 173.957 280.006C188.223 273.653 203.633 269.388 217.635 265.903C242.974 259.644 269.701 262.402 293.228 273.703C309.695 281.515 321.42 295.089 335.27 306.524C336.738 307.732 338.214 308.935 339.699 310.135C353.69 321.396 368.397 331.738 383.729 341.094C407.014 355.297 430.853 368.695 445.735 392.546C469.486 430.563 449.459 471.951 423.418 502.898Z" fill="black"/>
<path d="M436.526 501.942C443.58 507.806 450.959 513.266 458.63 518.296C473.587 519.302 466.882 537.38 466.882 537.38L454.076 545.62C454.076 545.62 432.149 528.196 420.172 522.548C408.196 516.9 436.526 501.942 436.526 501.942Z" fill="white"/>
<path opacity="0.3" d="M330.238 311.607C330.238 311.607 328.188 291.315 324.917 285.616L275.251 275.502V271.653C275.251 271.653 276.396 264.96 265.325 260.771C254.255 256.582 231.183 262.029 225.233 266.532C219.283 271.036 221.459 278.785 221.459 278.785C221.459 278.785 201.457 288.887 192.475 292.737C185.122 296.129 177.954 299.908 171 304.059C171 304.059 166.925 350.705 167.73 361.537C168.535 372.368 167.076 382.558 168.006 388.558C168.937 394.559 169.667 397.968 175.957 403.076C182.247 408.183 187.971 415.656 204.463 408.246L202.161 406.422L310.727 369.852L330.238 311.607Z" fill="black"/>
<path d="M330.238 311.607C330.238 311.607 328.188 291.315 324.917 285.616L275.251 275.502V271.653C275.251 271.653 276.396 264.96 265.325 260.771C254.255 256.582 231.183 262.029 225.233 266.532C219.283 271.036 221.459 278.785 221.459 278.785C221.459 278.785 201.457 288.887 192.475 292.737C185.122 296.129 177.954 299.908 171 304.059C171 304.059 166.925 350.705 167.73 361.537C168.535 372.368 167.076 382.558 168.006 388.558C168.937 394.559 169.667 397.968 175.957 403.076C182.247 408.183 187.971 415.656 204.463 408.246L202.161 406.422L310.727 369.852L330.238 311.607Z" fill="#1DB46F"/>
<path opacity="0.05" d="M330.238 311.607C330.238 311.607 328.188 291.315 324.917 285.616L275.251 275.502V271.653C275.251 271.653 276.396 264.96 265.325 260.771C254.255 256.582 231.183 262.029 225.233 266.532C219.283 271.036 221.459 278.785 221.459 278.785C221.459 278.785 201.457 288.887 192.475 292.737C185.122 296.129 177.954 299.908 171 304.059C171 304.059 166.925 350.705 167.73 361.537C168.535 372.368 167.076 382.558 168.006 388.558C168.937 394.559 169.667 397.968 175.957 403.076C182.247 408.183 187.971 415.656 204.463 408.246L202.161 406.422L310.727 369.852L330.238 311.607Z" fill="black"/>
<path opacity="0.1" d="M325.571 288.082H304.789C302.835 288.085 300.945 288.781 299.455 290.045C297.965 291.309 296.971 293.061 296.65 294.988L286.41 356.63C286.41 356.63 272.307 357.8 262.319 365.084C252.33 372.368 227.762 320.4 188.94 320.375C188.94 320.375 200.111 345.912 202.589 366.292C202.589 366.292 178.322 363.65 174.297 373.148C170.271 382.646 176.121 400.447 186.386 393.553C196.651 386.659 206.313 375.161 213.169 382.432C220.025 389.703 250.657 393.616 250.657 393.616L297.795 369.852L316.073 361.26L325.571 288.082Z" fill="black"/>
<path opacity="0.4" d="M259.589 257.525C259.589 257.525 271.389 260.796 273.301 264.759C275.213 268.721 275.012 278.748 275.012 278.748C272.148 285.449 267.81 291.417 262.319 296.209L253.513 278.748L254.305 298.549C254.305 298.549 237.599 295.768 230.504 290.434L223.422 285.088C223.422 285.088 220.365 275.024 220.805 271.615C221.245 268.206 233.989 261.287 233.989 261.287L259.589 257.525Z" fill="white"/>
<path d="M456.139 562.854C455.811 562.137 460.982 553.004 456.931 543.708C452.88 534.411 446.427 537.996 446.427 537.996C446.427 537.996 428.047 526.297 420.323 522.598C414.758 519.803 409.398 516.616 404.284 513.063L396.119 524.058L403.667 547.406L456.139 562.854Z" fill="#1DB46F"/>
<path d="M445.761 537.43L469.361 551.847C469.361 551.847 485.954 541.204 493.867 533.857C501.779 526.511 519.555 510.861 519.555 510.861L530.877 495.627C530.877 495.627 523.027 485.915 509.944 493.715C493.036 503.779 472.418 518.397 458.668 518.258C458.668 518.258 461.372 535.153 445.849 537.43" fill="#1DB46F"/>
<path d="M255.589 196.537C255.589 196.537 266.294 212.74 268.244 217.986C270.194 223.232 271.767 230.994 271.377 234.73C270.987 238.466 267.062 258.481 265.087 259.06L263.187 261.211L264.445 269.69C264.445 269.69 256.067 284.17 231.435 273.552C231.435 273.552 230.479 256.645 227.485 251.336C224.491 246.027 220.013 252.342 215.521 237.007C211.03 221.672 225.334 205.557 225.334 205.557L255.589 196.537Z" fill="white"/>
<path opacity="0.5" d="M520.599 490.897C520.599 490.897 508.459 493.01 504.522 500.193C500.584 507.377 493.023 520.724 490.444 527.177C487.866 533.631 466.542 549.218 466.542 549.218L469.373 551.847C469.373 551.847 486.733 541.116 497.213 530.914C507.692 520.711 530.801 495.048 530.801 495.048C530.801 495.048 529.141 493.4 520.599 490.897Z" fill="white"/>
<path opacity="0.5" d="M399.126 520.019L396.119 524.058L405.353 543.204L456.139 561.458L458.491 554.023C458.491 554.023 459.271 546.475 441.445 540.739C423.619 535.002 412.75 531.216 407.68 527.278C402.611 523.34 399.126 520.019 399.126 520.019Z" fill="white"/>
<path d="M231.473 377.815C231.473 377.815 215.924 375.475 208.665 388.194C201.407 400.912 202.149 406.422 202.149 406.422C202.149 406.422 212.427 415.756 226.554 415.228C240.681 414.7 261.25 398.522 267.955 393.251C274.66 387.98 291.567 372.896 303.103 376.016L304.361 365.109C304.361 365.109 303.229 360.216 293.366 361.537C283.504 362.858 279.629 368.481 276.446 368.481C273.264 368.481 270.257 365.424 263.866 376.343C263.854 376.343 241.424 380.319 231.473 377.815Z" fill="white"/>
<path d="M251.676 219.836C252.007 221.874 252.478 223.887 253.085 225.861C253.312 226.825 253.741 227.73 254.343 228.516C255.526 229.774 257.438 230.101 259.186 230.365C259.475 230.386 259.749 230.5 259.966 230.692C260.107 230.917 260.173 231.182 260.155 231.447C260.145 233.428 259.549 235.363 258.444 237.007" stroke="#263238" stroke-width="1.52" stroke-linecap="round" stroke-linejoin="round"/>
<path opacity="0.1" d="M409.555 506.974L399.126 519.969C399.126 519.969 410.574 530.549 422.424 534.474C434.275 538.399 455.019 545.796 458.491 551.495L457.158 544.714C457.158 544.714 424.714 524.812 417.266 520.057C415.064 518.613 413.224 516.682 411.887 514.414C410.55 512.145 409.752 509.6 409.555 506.974Z" fill="black"/>
<path opacity="0.1" d="M445.761 537.43L466.53 549.218C466.53 549.218 476.783 542.198 481.815 537.028C486.847 531.857 493.049 526.121 496.911 514.535C502.182 498.52 517.278 490.897 517.278 490.897C517.278 490.897 496.282 500.785 485.35 508.509C474.418 516.233 463.763 519.504 457.573 518.975C457.51 519.013 462.479 534.738 445.761 537.43Z" fill="black"/>
<path d="M244.355 239.863C244.355 239.863 252.519 246.266 260.998 243.863C260.998 243.863 252.997 259.714 244.355 239.863Z" fill="white" stroke="#263238" stroke-width="1.52" stroke-linecap="round" stroke-linejoin="round"/>
<path d="M244.053 226.025C244.292 227.786 243.751 229.308 242.87 229.434C241.989 229.56 241.071 228.176 240.832 226.453C240.593 224.729 241.121 223.169 242.015 223.043C242.908 222.918 243.864 224.264 244.053 226.025Z" fill="#263238"/>
<path d="M261.828 222.817C262.055 224.591 261.526 226.113 260.646 226.226C259.765 226.339 258.834 224.968 258.608 223.257C258.381 221.546 258.897 219.961 259.79 219.848C260.683 219.735 261.589 221.056 261.828 222.817Z" fill="#263238"/>
<path d="M242.795 218.552C242.795 218.552 238.039 216.099 234.655 221.358" stroke="#263238" stroke-width="1.52" stroke-linecap="round" stroke-linejoin="round"/>
<path d="M254.984 215.282C254.984 215.282 260.016 210.967 262.922 215.282" stroke="#263238" stroke-width="1.52" stroke-linecap="round" stroke-linejoin="round"/>
<path d="M226.642 234.743C226.642 234.743 223.585 230.227 220.352 230.365C217.119 230.503 215.836 235.032 216.993 239.41C218.15 243.788 222.968 249.902 226.617 249.323C228.674 249.058 230.552 248.013 231.862 246.404" stroke="#263238" stroke-width="1.52" stroke-linecap="round" stroke-linejoin="round"/>
<path d="M255.953 200.186C259.388 203.041 263.023 206.148 264.759 210.35C266.294 213.923 266.634 217.898 268.043 221.509C269.54 225.371 271.175 229.409 271.301 233.623C271.234 237.522 270.724 241.401 269.779 245.184C269.256 248.465 268.478 251.699 267.451 254.858C265.753 259.374 262.621 262.155 258.419 264.293C255.362 265.853 250.267 268.067 246.958 265.979C245.034 264.721 242.14 261.123 239.738 257.815" stroke="#263238" stroke-width="1.52" stroke-linecap="round" stroke-linejoin="round"/>
<path d="M226.642 249.323C226.642 249.323 232.051 262.582 230.743 271.904" stroke="#263238" stroke-width="1.52" stroke-linecap="round" stroke-linejoin="round"/>
<path d="M225.258 232.516C225.978 231.983 226.549 231.274 226.915 230.456C227.28 229.639 227.429 228.741 227.347 227.849C227.145 225.811 225.736 223.924 226.013 221.886C226.245 220.91 226.609 219.97 227.095 219.093C227.828 217.401 228.15 215.559 228.037 213.719C227.923 211.878 227.376 210.09 226.441 208.501C226.441 208.501 243.625 209.306 251.676 204.186C259.728 199.066 265.867 185.97 260.998 179.718C256.13 173.466 246.644 181.995 239.612 182.938C232.58 183.882 207.571 187.87 203.583 197.506C199.595 207.142 205.671 210.602 205.86 219.798C206.049 228.994 206.049 246.417 219.799 244.819C219.799 244.819 214.653 238.165 218.226 231.308C220.654 228.428 225.258 232.516 225.258 232.516Z" fill="#263238"/>
<path d="M258.959 190.587C261.293 192.404 263.227 194.683 264.643 197.28C266.058 199.877 266.924 202.737 267.187 205.683C267.954 212.577 280.182 225.975 271.363 233.611C271.363 233.611 269.313 225.496 268.105 221.496C266.897 217.496 265.35 210.174 263.325 207.658C261.299 205.142 250.556 196.336 250.556 196.336L258.959 190.587Z" fill="#263238"/>
<path d="M228.227 271.615C228.227 271.615 236.706 277.2 252.456 277.427L254.305 298.549C254.305 298.549 236.592 297.202 223.421 285.088C223.421 285.088 219.861 275.666 220.805 271.615C221.748 267.564 230.214 263.551 230.214 263.551" stroke="#263238" stroke-width="1.52" stroke-linecap="round" stroke-linejoin="round"/>
<path d="M263.853 262.167L264.356 269.715C261.036 273.173 256.964 275.821 252.456 277.452L262.318 296.234C262.318 296.234 274.081 287.076 275.251 277.452C275.251 277.452 275.351 267.602 273.301 264.784C271.25 261.966 263.778 260.645 263.778 260.645" stroke="#263238" stroke-width="1.52" stroke-linecap="round" stroke-linejoin="round"/>
<path opacity="0.8" d="M216.125 203.796C217.383 200.638 220.83 198.764 224.189 198.261C227.547 197.758 230.994 198.11 234.391 198.022C239.094 197.984 243.7 196.68 247.726 194.248C249.726 193.03 251.466 191.43 252.848 189.539C254.229 187.648 255.225 185.503 255.777 183.228" stroke="white" stroke-width="1.52" stroke-linecap="round" stroke-linejoin="round"/>
<path opacity="0.8" d="M208.011 203.18C210.137 196.726 217.03 192.738 223.811 192.172C227.17 191.883 230.566 192.273 233.875 191.883C237.184 191.493 240.706 190.109 242.455 187.228" stroke="white" stroke-width="1.52" stroke-linecap="round" stroke-linejoin="round"/>
<path d="M204.438 408.246C188.084 416.725 182.272 407.995 173.164 400.774C164.056 393.553 170.032 380.646 168.132 359.952C166.233 339.257 170.963 304.059 170.963 304.059C170.963 304.059 175.039 303.128 186.348 296.209C197.657 289.29 221.459 278.748 221.459 278.748" stroke="#263238" stroke-width="1.52" stroke-linecap="round" stroke-linejoin="round"/>
<path d="M220.641 376.922C220.641 376.922 218.05 368.707 210.728 368.493C203.407 368.28 191.858 371.575 183.631 387.137" stroke="#263238" stroke-width="1.52" stroke-linecap="round" stroke-linejoin="round"/>
<path d="M209.055 368.003C208.6 367.973 208.153 367.867 207.734 367.688C201.698 365.516 195.147 365.218 188.939 366.833" stroke="#263238" stroke-width="1.52" stroke-linecap="round" stroke-linejoin="round"/>
<path d="M184.725 315.293C198.048 330.011 204.539 349.485 210.69 368.355" stroke="#263238" stroke-width="1.52" stroke-linecap="round" stroke-linejoin="round"/>
<path d="M275.251 275.502C275.251 275.502 299.405 281.264 311.205 282.635C323.005 284.006 324.917 285.654 324.917 285.654L327.118 293.881" stroke="#263238" stroke-width="1.52" stroke-linecap="round" stroke-linejoin="round"/>
<path d="M387.804 289.818L305.544 292.976L298.826 377.576H312.916L384.345 361.587L393.327 291.843L387.804 289.818Z" fill="white"/>
<path d="M303.103 380.08L393.075 293.844L384.344 361.587L303.103 380.08Z" fill="#1DB46F"/>
<path opacity="0.7" d="M303.103 380.08L393.075 293.844L384.344 361.587L303.103 380.08Z" fill="white"/>
<path d="M303.103 377.815L310.298 296.209L393.326 291.843L384.344 361.587L303.103 377.815Z" stroke="#263238" stroke-width="1.52" stroke-linecap="round" stroke-linejoin="round"/>
<path d="M358.329 331.382C357.775 336.351 355.121 340.125 352.404 339.824C349.687 339.522 347.95 335.232 348.504 330.263C349.058 325.294 351.725 321.52 354.442 321.822C357.159 322.123 358.895 326.413 358.329 331.382Z" fill="#263238"/>
<path d="M384.344 361.587C384.344 361.587 422.361 360.505 434.249 368.355C446.137 376.205 453.119 415.568 451.471 436.476C449.823 457.384 435.482 505.364 435.482 505.364L408.007 474.266C408.007 474.266 394.471 425.053 401.856 405.78C401.856 405.78 365.374 407.831 351.007 403.327C351.007 403.327 338.138 382.256 316.073 375.287L384.344 361.587Z" fill="#263238"/>
<path d="M441.282 506.181C431.523 497.072 422.76 486.951 415.14 475.989C401.843 455.446 383.464 435.733 364.556 420.348C349.322 407.995 345.875 387.867 327.08 377.765C295.945 361.071 269.024 394.245 258.96 400.962C248.896 407.68 231.472 415.291 231.472 415.291C231.472 415.291 237.838 439.193 256.532 442.023C275.226 444.854 294.133 431.959 303.078 438.187C312.022 444.414 318.639 472.215 348.177 488.507C372.318 501.816 405.215 514.799 422.185 523.554C425.959 525.517 428.777 527.58 430.916 528.75C436.778 531.945 443.043 535.707 448.955 539.43L469.322 551.834C469.322 551.834 489.765 539.745 497.615 528.599C498.659 527.102 500.835 523.114 502.873 519.265C507.314 510.849 512.937 503.301 520.724 499.137C526.108 496.231 530.901 495.363 530.788 495.061C530.272 494.105 520.51 489.11 513.881 491.84C499.841 497.64 471.775 519.919 458.529 518.258C452.367 514.856 446.586 510.808 441.282 506.181V506.181Z" stroke="#263238" stroke-width="1.52" stroke-miterlimit="10"/>
<path d="M441.282 506.181C429.041 511.125 424.11 518.761 422.223 523.567C405.252 514.761 372.356 501.829 348.215 488.519C318.677 472.165 312.11 444.414 303.115 438.199C294.121 431.985 275.2 444.917 256.569 442.036C237.938 439.155 231.472 415.278 231.472 415.278C231.472 415.278 248.908 407.73 258.972 401.013C269.036 394.295 292.246 361.109 327.08 377.815C346.315 387.036 349.322 408.007 364.556 420.398C383.426 435.733 401.843 455.497 415.14 476.04C422.742 487 431.506 497.106 441.282 506.181Z" fill="#263238"/>
<path d="M349.297 399.528C349.297 399.528 339.875 380.381 324.766 376.67" stroke="white" stroke-width="1.52" stroke-linecap="round" stroke-linejoin="round"/>
<path d="M299.908 361.411C289.517 359.146 278.107 370.632 273.301 368.481C269.728 366.883 263.853 376.343 263.853 376.343C254.183 377.74 244.404 378.232 234.643 377.815C220.641 376.922 214.011 379.652 209.055 387.137L202.136 405.466C202.136 405.466 220.39 421.82 239.876 412.297C259.362 402.774 285.252 374.041 303.09 374.142" stroke="#263238" stroke-width="1.52" stroke-linecap="round" stroke-linejoin="round"/>
<path d="M444.967 536.94C444.967 536.94 462.026 538.336 458.025 517.956" stroke="#263238" stroke-width="1.52" stroke-miterlimit="10"/>
<path d="M525.354 505.364C524.096 507.88 508.459 521.189 494.986 532.826C494.986 532.65 498.76 525.542 500.32 522.51C503.905 515.818 513.164 497.464 530.789 495.048C533.292 496.558 525.354 505.364 525.354 505.364Z" fill="#263238"/>
<path d="M518.649 491.035C500.823 494.583 496.772 517.453 490.444 527.178C484.117 536.902 466.542 550.123 466.542 550.123" stroke="#263238" stroke-width="1.52" stroke-miterlimit="10"/>
<path d="M456.931 544.286C459.837 549.595 458.466 555.759 456.931 559.621C456.179 561.539 455.244 563.38 454.138 565.119C428.903 560.967 403.667 547.406 403.667 547.406L397.164 527.278L396.119 524.058L405.919 510.861" stroke="#263238" stroke-width="1.52" stroke-miterlimit="10"/>
<path d="M456.931 559.621C456.179 561.539 455.244 563.38 454.139 565.119C428.903 560.967 403.668 547.406 403.668 547.406L397.164 527.278C400.422 531.53 406.46 537.757 415.518 540.311C427.809 543.796 450.49 547.872 456.931 559.621Z" fill="#263238"/>
<path d="M298.826 374.632L305.544 292.976L387.804 289.818L393.327 291.843" stroke="#263238" stroke-width="1.52" stroke-linecap="round" stroke-linejoin="round"/>
<path d="M457.912 527.177C457.912 527.177 469.159 529.19 477.801 522.145C486.444 515.101 500.37 499.162 500.37 499.162" stroke="#263238" stroke-width="1.52" stroke-miterlimit="10"/>
<path d="M469.36 517.038C469.36 517.038 466.643 521.127 469.36 529.329" stroke="#263238" stroke-width="1.52" stroke-linecap="round" stroke-linejoin="round"/>
<path d="M477.336 513.126C476.099 517.203 476.464 521.598 478.355 525.416" stroke="#263238" stroke-width="1.52" stroke-linecap="round" stroke-linejoin="round"/>
<path d="M486.847 507.616C486.847 507.616 484.57 514.447 486.847 520.472" stroke="#263238" stroke-width="1.52" stroke-linecap="round" stroke-linejoin="round"/>
<path d="M408.146 509.163L399.126 520.019C399.126 520.019 408.209 529.945 421.028 534.071C433.847 538.198 456.742 545.205 458.642 552.665" stroke="#263238" stroke-width="1.52" stroke-miterlimit="10"/>
<path d="M351.826 327.742C351.323 327.742 350.916 328.143 350.916 328.638V334.295C350.916 334.79 351.323 335.191 351.826 335.191C352.329 335.191 352.737 334.79 352.737 334.295V328.638C352.737 328.143 352.329 327.742 351.826 327.742Z" fill="#6FCF97"/>
<path d="M354.293 330.112C353.836 330.112 353.465 330.477 353.465 330.928V332.891C353.465 333.341 353.836 333.706 354.293 333.706C354.751 333.706 355.122 333.341 355.122 332.891V330.928C355.122 330.477 354.751 330.112 354.293 330.112Z" fill="#6FCF97"/>
<path d="M353.465 328.896C353.465 328.446 353.836 328.081 354.293 328.081C354.751 328.081 355.122 328.446 355.122 328.896V329.062C355.122 329.513 354.751 329.878 354.293 329.878C353.836 329.878 353.465 329.513 353.465 329.062V328.896Z" fill="#6FCF97"/>
<path d="M356.709 330.528C356.251 330.528 355.88 330.893 355.88 331.343V331.51C355.88 331.96 356.251 332.325 356.709 332.325C357.166 332.325 357.537 331.96 357.537 331.51V331.343C357.537 330.893 357.166 330.528 356.709 330.528Z" fill="#6FCF97"/>
</svg>
