<svg width="121" height="121" viewBox="0 0 121 121" fill="none" xmlns="http://www.w3.org/2000/svg">
<g clip-path="url(#clip0)">
<path d="M38.4447 47.172C38.1222 46.5389 37.4909 46.1234 36.7831 46.0771L19.8182 44.9458C18.9391 44.8591 18.1264 45.4036 17.8057 46.2222L5.57559 77.4782C5.24686 78.3172 5.51509 79.271 6.23305 79.8174C6.59203 80.0915 7.02356 80.2288 7.45297 80.2288C7.87835 80.2288 8.30397 80.0958 8.66295 79.8256L18.8141 72.2133L24.7246 73.395C25.6886 73.5866 26.6523 73.0582 27.0033 72.1368C30.1773 63.8226 33.9985 56.0914 38.3561 49.1607C38.7333 48.5592 38.7676 47.803 38.4447 47.172ZM23.8533 69.1075L18.7193 68.0812C18.1588 67.9703 17.5739 68.1034 17.1142 68.4461L11.9136 72.3459L21.0221 49.0673L33.1978 49.8779C29.6891 55.8168 26.5554 62.2654 23.8533 69.1075Z" fill="#1DB46F"/>
<path d="M76.0548 101.184L74.9235 84.2172C74.8751 83.5073 74.4596 82.8763 73.8265 82.5535C73.1953 82.2309 72.439 82.2631 71.8383 82.6421C64.9054 86.9998 57.1761 90.8211 48.8622 93.995C47.9427 94.3438 47.4102 95.3078 47.604 96.2737L48.7856 102.184L41.1733 112.333C40.6329 113.055 40.635 114.047 41.1814 114.765C41.5706 115.277 42.1695 115.562 42.7865 115.562C43.0325 115.562 43.2807 115.515 43.5224 115.426L74.7784 103.196C75.597 102.876 76.1132 102.061 76.0548 101.184ZM48.6523 109.083L52.5522 103.882C52.8951 103.425 53.0282 102.84 52.9152 102.277L51.8888 97.1452C58.7328 94.4431 65.1796 91.3094 71.1182 87.8007L71.9309 99.9743L48.6523 109.083Z" fill="#1DB46F"/>
<path d="M58.4788 60.5011H44.8915C44.1596 60.5011 43.4861 60.8984 43.129 61.5376L26.0752 92.1806C25.6317 92.9791 25.7808 93.9792 26.4382 94.6126C26.8235 94.9836 27.3294 95.1772 27.8378 95.1772C28.1967 95.1772 28.5576 95.0824 28.8802 94.8848L59.5231 76.3411C60.126 75.9762 60.4952 75.3227 60.4952 74.6171V62.5177C60.4954 61.4046 59.5919 60.5011 58.4788 60.5011ZM56.4625 73.4815L33.2948 87.5023L46.0755 64.5361V64.534H56.4625V73.4815Z" fill="#1DB46F"/>
<path d="M120.898 1.94348C120.815 0.961551 120.037 0.183094 119.055 0.10038C118.386 0.0479155 51.9799 -4.58809 23.2365 70.6966C22.9522 71.4408 23.1316 72.2795 23.6943 72.8422L33.2827 82.4306C33.7325 82.8803 34.3616 83.0859 34.9928 83.0013C35.62 82.9106 36.1685 82.5315 36.475 81.9769L46.0817 64.5341H56.4627V73.5055L38.9151 84.5843C38.3968 84.913 38.056 85.4575 37.9875 86.0665C37.919 86.6755 38.1326 87.2824 38.5663 87.716L48.1547 97.3045C48.5399 97.6897 49.0542 97.8953 49.5805 97.8953C49.8225 97.8953 50.0663 97.853 50.3003 97.7622C125.589 69.0168 120.955 2.61111 120.898 1.94348ZM110.319 37.7206C103.243 55.2279 87.0509 79.0289 50.0782 93.5256L43.2018 86.6493L59.5558 76.3247C60.1404 75.9536 60.4954 75.3104 60.4954 74.6186V62.5195C60.4954 61.4064 59.5919 60.5029 58.4788 60.5029H44.8875C44.1516 60.5029 43.4759 60.9042 43.121 61.5474L34.2342 77.6835L27.4729 70.9201C52.7056 6.54924 106.49 3.91562 116.946 4.06285C117.02 8.7655 116.589 22.2075 110.319 37.7206Z" fill="#1DB46F"/>
<path d="M34.5427 89.065C34.105 88.4843 33.4074 88.2019 32.7237 88.2745C32.7943 87.5889 32.5119 86.8932 31.9332 86.4555C28.8924 84.1567 24.9682 83.3925 21.1631 84.3562C17.1241 85.3826 13.8209 88.1372 12.1028 91.9182L0.181388 118.147C-0.167429 118.913 -0.00412822 119.815 0.590704 120.407C0.975915 120.795 1.49205 120.998 2.01646 120.998C2.29887 120.998 2.58317 120.938 2.8514 120.817L29.0803 108.893C32.8591 107.177 35.6137 103.874 36.6401 99.8351C37.6059 96.034 36.8417 92.1079 34.5427 89.065ZM32.732 98.843C32.01 101.688 30.0702 104.013 27.4125 105.223L6.07772 114.921L15.7751 93.584C16.983 90.9263 19.3101 88.9863 22.1554 88.2646C22.9036 88.075 23.6556 87.9821 24.3977 87.9821C25.654 87.9821 26.882 88.2504 28.0012 88.7727L26.0815 92.1706C25.6358 92.9589 25.771 93.9491 26.4121 94.5884C27.0533 95.2317 28.0435 95.3647 28.83 94.919L32.2279 92.9972C33.0545 94.7758 33.2422 96.8304 32.732 98.843Z" fill="#1DB46F"/>
<path d="M120.898 1.94572C120.815 0.963789 120.037 0.185332 119.055 0.102618C118.269 0.0399914 99.5754 -1.3756 77.5914 8.75143C76.9925 9.02557 76.5669 9.5781 76.4499 10.2275C76.3329 10.8769 76.5428 11.5422 77.0086 12.008L108.991 43.99C109.372 44.3712 109.886 44.5808 110.416 44.5808C110.535 44.5808 110.654 44.5706 110.773 44.5505C111.423 44.4336 111.973 44.0082 112.249 43.4091C122.378 21.4251 120.963 2.73009 120.898 1.94572ZM109.763 39.0555L81.9431 11.2357C98.0369 4.44203 112.13 3.97411 116.948 4.05493C117.028 8.87645 116.575 22.9255 109.763 39.0555Z" fill="#1DB46F"/>
<path d="M89.0572 31.9413C82.2756 25.1597 71.2435 25.1597 64.4619 31.9413C57.6803 38.7229 57.6803 49.7551 64.4619 56.5367C67.8517 59.9284 72.3062 61.6224 76.7586 61.6224C81.2131 61.6224 85.6655 59.9265 89.0572 56.5367C95.8389 49.7551 95.8389 38.7227 89.0572 31.9413ZM86.206 53.6852C80.9974 58.8938 72.522 58.8938 67.3134 53.6852C62.1048 48.4765 62.1048 40.0012 67.3134 34.7926C69.9167 32.1892 73.3387 30.8866 76.7589 30.8866C80.179 30.8866 83.601 32.1892 86.2062 34.7926C91.4146 40.0012 91.4146 48.4765 86.206 53.6852Z" fill="#1DB46F"/>
<path d="M80.7675 48.2487C78.5573 50.4629 74.96 50.4607 72.7477 48.2487C70.5376 46.0367 70.5376 42.4413 72.7477 40.229C74.9579 38.0189 78.5552 38.017 80.7675 40.229C81.554 41.0174 82.8325 41.0174 83.6187 40.229C84.4071 39.4406 84.4071 38.1661 83.6187 37.3777C79.8378 33.5949 73.6793 33.5949 69.8965 37.3777C66.1134 41.1606 66.1134 47.3171 69.8965 51.1C71.788 52.9915 74.2744 53.9373 76.7587 53.9373C79.2451 53.9373 81.7293 52.9915 83.6187 51.1C84.4071 50.3116 84.4071 49.0371 83.6187 48.2487C82.8322 47.4603 81.554 47.4603 80.7675 48.2487Z" fill="#1DB46F"/>
</g>
<defs>
<clipPath id="clip0">
<rect width="121" height="121" fill="white"/>
</clipPath>
</defs>
</svg>
