<svg width="106" height="106" viewBox="0 0 106 106" fill="none" xmlns="http://www.w3.org/2000/svg">
<g clip-path="url(#clip0)">
<path d="M83.4712 11.8556C74.613 5.29441 64.1007 1.82767 53.0712 1.82767C43.014 1.82767 33.0225 4.72259 25.5861 9.68989V1.82767C25.5861 0.818809 24.7673 0 23.7584 0C22.7496 0 21.9308 0.818809 21.9308 1.82767V13.3249C21.9308 14.034 22.3401 14.6791 22.9816 14.9789C23.623 15.2806 24.3816 15.1837 24.9263 14.7303C31.8966 8.94044 42.4182 5.4826 53.0712 5.4826C63.3111 5.4826 73.0704 8.70277 81.2963 14.7942C81.6235 15.0354 82.0036 15.1524 82.382 15.1524C82.9412 15.1524 83.4932 14.8965 83.8513 14.4123C84.4527 13.6009 84.2828 12.4569 83.4712 11.8556Z" fill="#1DB46F"/>
<path d="M104.172 21.931H92.675C91.9659 21.931 91.3243 22.3421 91.0229 22.9837C90.7212 23.6251 90.8181 24.3837 91.2715 24.9284C97.0613 31.897 100.519 42.4184 100.519 53.0732C100.519 63.3132 97.299 73.0725 91.2075 81.2966C90.6063 82.1079 90.7763 83.252 91.5876 83.8534C91.9147 84.0946 92.2949 84.2116 92.6733 84.2116C93.2325 84.2116 93.7844 83.9557 94.1445 83.4714C100.705 74.6132 104.172 64.1008 104.172 53.0714C104.172 43.0142 101.278 33.021 96.3102 25.5863H104.172C105.181 25.5863 106 24.7675 106 23.7586C106 22.7498 105.181 21.931 104.172 21.931Z" fill="#1DB46F"/>
<path d="M83.02 91.023C82.3786 90.7232 81.6219 90.8164 81.0754 91.2716C74.105 97.0615 63.5835 100.519 52.9305 100.519C42.6887 100.519 32.9294 97.2991 24.7053 91.2076C23.894 90.6064 22.7499 90.7764 22.1485 91.5878C21.5473 92.3991 21.7172 93.5432 22.5286 94.1446C31.3868 100.706 41.8993 104.173 52.9286 104.173C62.9858 104.173 72.9773 101.278 80.4137 96.3103V104.173C80.4137 105.181 81.2325 106 82.2414 106C83.2502 106 84.069 105.181 84.069 104.173V92.6753C84.069 91.966 83.6597 91.3209 83.02 91.023Z" fill="#1DB46F"/>
<path d="M14.7303 81.0737C8.94044 74.1033 5.4826 63.5837 5.4826 52.9288C5.4826 42.6888 8.70277 32.9296 14.7924 24.7055C15.3936 23.8941 15.2236 22.7501 14.4123 22.1486C13.6009 21.5456 12.4569 21.7174 11.8554 22.5287C5.29441 31.387 1.82767 41.8992 1.82767 52.9288C1.82767 62.986 4.72259 72.9775 9.68989 80.4139H1.82767C0.818809 80.4139 0 81.2327 0 82.2415C0 83.2504 0.818809 84.0692 1.82767 84.0692H13.3249C14.034 84.0692 14.6773 83.6599 14.9789 83.0183C15.2806 82.3767 15.1837 81.6182 14.7303 81.0737Z" fill="#1DB46F"/>
<path d="M54.8276 34.7204C54.8258 33.7115 54.007 32.8964 53 32.8964C53 32.8964 52.9981 32.8964 52.9962 32.8964C51.9855 32.8983 51.1704 33.7188 51.1723 34.7276L51.2162 53.0035C51.2181 54.0124 52.0369 54.8275 53.0439 54.8275C53.0457 54.8275 53.0476 54.8275 53.0476 54.8275C54.0583 54.8256 54.8734 54.0051 54.8715 52.9963L54.8276 34.7204Z" fill="#1DB46F"/>
<path d="M53.0438 51.1723H42.0346C41.0257 51.1723 40.2069 51.9911 40.2069 53C40.2069 54.0088 41.0257 54.8276 42.0346 54.8276H53.0438C54.0527 54.8276 54.8715 54.0088 54.8715 53C54.8715 51.9911 54.0527 51.1723 53.0438 51.1723Z" fill="#1DB46F"/>
<path d="M53.0001 14.6208C31.8384 14.6208 14.6208 31.8367 14.6208 53C14.6208 74.1634 31.8384 91.3793 53.0001 91.3793C74.1634 91.3793 91.3793 74.1634 91.3793 53C91.3793 31.8367 74.1634 14.6208 53.0001 14.6208ZM53.0001 87.7241C33.8524 87.7241 18.276 72.1477 18.276 53C18.276 33.8523 33.8524 18.2759 53.0001 18.2759C72.1478 18.2759 87.7242 33.8523 87.7242 53C87.7242 72.1477 72.1478 87.7241 53.0001 87.7241Z" fill="#1DB46F"/>
<path d="M27.4138 51.1723H23.7586C22.7498 51.1723 21.931 51.9911 21.931 53C21.931 54.0088 22.7498 54.8276 23.7586 54.8276H27.4138C28.4226 54.8276 29.2415 54.0088 29.2415 53C29.2415 51.9911 28.4226 51.1723 27.4138 51.1723Z" fill="#1DB46F"/>
<path d="M82.2412 51.1723H78.5861C77.5772 51.1723 76.7584 51.9911 76.7584 53C76.7584 54.0088 77.5772 54.8276 78.5861 54.8276H82.2412C83.2501 54.8276 84.0689 54.0088 84.0689 53C84.0689 51.9911 83.2501 51.1723 82.2412 51.1723Z" fill="#1DB46F"/>
<path d="M53 76.7587C51.9911 76.7587 51.1723 77.5775 51.1723 78.5863V82.2415C51.1723 83.2503 51.9911 84.0692 53 84.0692C54.0088 84.0692 54.8276 83.2503 54.8276 82.2415V78.5863C54.8276 77.5773 54.0088 76.7587 53 76.7587Z" fill="#1DB46F"/>
<path d="M53 21.931C51.9911 21.931 51.1723 22.7498 51.1723 23.7586V27.4138C51.1723 28.4226 51.9911 29.2415 53 29.2415C54.0088 29.2415 54.8276 28.4226 54.8276 27.4138V23.7586C54.8276 22.7498 54.0088 21.931 53 21.931Z" fill="#1DB46F"/>
<path d="M36.0162 69.9838C35.3034 69.2691 34.1465 69.2691 33.432 69.9838L31.0307 72.3835C30.3179 73.0963 30.3179 74.2532 31.0307 74.9676C31.387 75.3239 31.8549 75.503 32.3227 75.503C32.7906 75.503 33.2585 75.3258 33.6148 74.9676L36.0162 72.5679C36.729 71.8551 36.729 70.6982 36.0162 69.9838Z" fill="#1DB46F"/>
<path d="M74.9676 31.0323C74.253 30.3177 73.0979 30.3177 72.3835 31.0323L69.9838 33.432C69.2691 34.1467 69.2691 35.3017 69.9838 36.0162C70.3401 36.3725 70.808 36.5516 71.2758 36.5516C71.7437 36.5516 72.2116 36.3725 72.5679 36.0162L74.9676 33.6165C75.6821 32.902 75.6821 31.747 74.9676 31.0323Z" fill="#1DB46F"/>
<path d="M74.9676 72.3833L72.5679 69.9836C71.8533 69.2689 70.6982 69.2689 69.9838 69.9836C69.2691 70.6983 69.2691 71.8533 69.9838 72.5677L72.3835 74.9675C72.7398 75.3238 73.2077 75.5028 73.6755 75.5028C74.1434 75.5028 74.6113 75.3256 74.9676 74.9675C75.6821 74.253 75.6821 73.098 74.9676 72.3833Z" fill="#1DB46F"/>
<path d="M36.0161 33.432L33.6148 31.0323C32.902 30.3177 31.7451 30.3177 31.0306 31.0323C30.3159 31.747 30.3159 32.9037 31.0306 33.6165L33.432 36.0162C33.7883 36.3725 34.2562 36.5516 34.724 36.5516C35.1919 36.5516 35.6598 36.3725 36.0161 36.0162C36.7308 35.3017 36.7308 34.1448 36.0161 33.432Z" fill="#1DB46F"/>
</g>
<defs>
<clipPath id="clip0">
<rect width="106" height="106" fill="white"/>
</clipPath>
</defs>
</svg>
