<svg width="34" height="34" viewBox="0 0 34 34" fill="none" xmlns="http://www.w3.org/2000/svg">
<path d="M34 6.09281C32.7272 6.65727 31.4489 7.08337 30.0322 7.22725C31.4489 6.37504 32.5833 4.95837 33.1478 3.39783C31.7311 4.25004 30.3145 4.81449 28.7594 5.10225C27.3428 3.68559 25.5 2.83337 23.5189 2.83337C19.6895 2.83337 16.5739 5.94893 16.5739 9.77283C16.5739 10.3428 16.5739 10.9073 16.7178 11.3334C10.9072 11.0511 5.81055 8.35616 2.40723 4.10616C1.69889 5.10225 1.41667 6.37504 1.41667 7.64783C1.41667 10.0606 2.68945 12.1856 4.53223 13.4584C3.39779 13.3145 2.26888 13.0323 1.41667 12.6062C1.41667 12.6062 1.41667 12.6062 1.41667 12.75C1.41667 16.1478 3.82389 18.9812 6.93945 19.5511C6.375 19.6895 5.81055 19.8334 5.10221 19.8334C4.67611 19.8334 4.25 19.8334 3.82389 19.6895C4.67611 22.5228 7.22721 24.5095 10.3428 24.5095C7.93555 26.3523 4.95833 27.4812 1.69889 27.4812C1.13444 27.4812 0.564454 27.4812 0 27.3428C3.11556 29.3239 6.80111 30.4584 10.625 30.4584C23.5189 30.4584 30.4583 19.8334 30.4583 10.625C30.4583 10.3428 30.4583 10.0606 30.4583 9.77283C31.875 8.78227 33.0094 7.50948 34 6.09281Z" fill="white"/>
</svg>
