<svg width="121" height="121" viewBox="0 0 121 121" fill="none" xmlns="http://www.w3.org/2000/svg">
<path d="M66.5501 82.6834H54.4501C53.337 82.6834 52.4335 83.5869 52.4335 84.7C52.4335 85.8131 53.337 86.7166 54.4501 86.7166H66.5501C67.6632 86.7166 68.5667 85.8131 68.5667 84.7C68.5667 83.5869 67.6632 82.6834 66.5501 82.6834Z" fill="#1DB46F"/>
<path d="M112.931 2.01666H8.06872C3.61984 2.01666 0 5.63674 0 10.0854V76.6333C0 77.7464 0.903482 78.6498 2.01659 78.6498H118.983C120.096 78.6498 121 77.7464 121 76.6333V10.0854C121 5.63674 117.38 2.01666 112.931 2.01666ZM116.967 74.6167H4.03341V10.0854C4.03341 7.85893 5.84439 6.05008 8.06872 6.05008H112.931C115.156 6.05008 116.967 7.85893 116.967 10.0854V74.6167Z" fill="#1DB46F"/>
<path d="M118.983 74.6165H2.01659C0.903482 74.6165 0 75.5201 0 76.6333V86.7144C0 91.1633 3.61984 94.7831 8.06872 94.7831H112.931C117.38 94.7831 121 91.1633 121 86.7144L121 76.6333C121 75.5201 120.097 74.6165 118.983 74.6165ZM116.967 86.7146C116.967 88.9411 115.156 90.7499 112.931 90.7499H8.06872C5.84439 90.7499 4.03341 88.9411 4.03341 86.7146V78.6499H116.967L116.967 86.7146Z" fill="#1DB46F"/>
<path d="M110.917 10.0834H10.0834C8.97025 10.0834 8.06676 10.9869 8.06676 12.1V76.6334C8.06676 77.7465 8.97025 78.65 10.0834 78.65H110.917C112.03 78.65 112.933 77.7465 112.933 76.6334V12.1C112.933 10.9869 112.03 10.0834 110.917 10.0834ZM108.9 74.6166H12.0999V14.1166H108.9V74.6166Z" fill="#1DB46F"/>
<path d="M86.7165 106.883H34.2833C30.9478 106.883 28.2333 109.598 28.2333 112.933C28.2333 116.269 30.9478 118.983 34.2833 118.983H86.7168C90.0523 118.983 92.7668 116.269 92.7668 112.933C92.7668 109.598 90.0521 106.883 86.7165 106.883ZM86.7165 114.95H34.2833C33.1702 114.95 32.2668 114.045 32.2668 112.933C32.2668 111.822 33.1702 110.917 34.2833 110.917H86.7168C87.8299 110.917 88.7333 111.822 88.7333 112.933C88.7333 114.045 87.8299 114.95 86.7165 114.95Z" fill="#1DB46F"/>
<path d="M82.6833 106.883C75.9919 106.883 72.5998 102.134 72.5998 92.7669C72.5998 91.6538 71.6964 90.7503 70.5833 90.7503H50.4167C49.3036 90.7503 48.4001 91.6538 48.4001 92.7669C48.4001 102.134 45.0081 106.883 38.3167 106.883C37.2036 106.883 36.3001 107.787 36.3001 108.9C36.3001 110.013 37.2036 110.917 38.3167 110.917H82.6833C83.7964 110.917 84.6998 110.013 84.6998 108.9C84.6998 107.787 83.7964 106.883 82.6833 106.883ZM48.1397 106.883C50.6223 104.133 52.0842 100.037 52.3787 94.7835H68.6229C68.9153 100.037 70.3774 104.133 72.8619 106.883H48.1397Z" fill="#1DB46F"/>
<path d="M96.3644 61.4356L91.4962 56.5675L94.2046 53.8592C94.7068 53.357 94.9083 52.627 94.7349 51.9392C94.5614 51.2515 94.0391 50.707 93.3595 50.5014L73.1929 44.4514C72.4811 44.2375 71.7128 44.4332 71.1883 44.9576C70.662 45.482 70.4685 46.2522 70.6821 46.9622L76.7321 67.1288C76.9358 67.8103 77.4822 68.3326 78.17 68.5061C78.8555 68.6755 79.5877 68.4777 80.0899 67.9758L82.9414 65.1221L87.8095 69.9923C88.1867 70.3714 88.701 70.5832 89.2353 70.5832C89.7696 70.5832 90.2839 70.3714 90.6611 69.9923L96.3641 64.2871C97.1528 63.4988 97.1528 62.2242 96.3644 61.4356ZM89.2353 65.715L84.8027 61.2803C84.2885 60.7661 83.615 60.5099 82.9414 60.5099C82.2658 60.5099 81.5922 60.768 81.0801 61.2782L79.6241 62.7342L75.6209 49.39L88.9652 53.3931L87.4042 54.9541C86.9746 55.3856 86.7387 55.9585 86.7387 56.5675C86.7387 57.1786 86.9767 57.7553 87.4082 58.1828L92.0868 62.8614L89.2353 65.715Z" fill="#1DB46F"/>
<path d="M84.6998 18.15H28.2333C27.1202 18.15 26.2167 19.0534 26.2167 20.1666V30.25C26.2167 31.3631 27.1202 32.2666 28.2333 32.2666H84.6998C85.8129 32.2666 86.7164 31.3631 86.7164 30.25V20.1666C86.7164 19.0534 85.8129 18.15 84.6998 18.15ZM82.6833 28.2334H30.2498V22.1834H82.6833V28.2334Z" fill="#1DB46F"/>
<path d="M52.4336 40.3335H36.3002C35.1871 40.3335 34.2836 41.237 34.2836 42.3501V50.4167C34.2836 51.5298 35.1871 52.4332 36.3002 52.4332H52.4336C53.5467 52.4332 54.4502 51.5298 54.4502 50.4167V42.3501C54.4502 41.237 53.5467 40.3335 52.4336 40.3335ZM50.4168 48.4001H38.3168V44.3667H50.4168V48.4001Z" fill="#1DB46F"/>
<path d="M84.6998 18.15H28.2333C27.1202 18.15 26.2167 19.0534 26.2167 20.1666V58.4831C26.2167 59.5962 27.1202 60.4997 28.2333 60.4997H76.2421C76.8814 60.4997 77.4803 60.1994 77.8596 59.687C78.2408 59.1749 78.3577 58.5134 78.1741 57.9022L75.6211 49.3899L84.1213 51.9411C84.7324 52.1247 85.3939 52.0077 85.9039 51.6265C86.416 51.2475 86.7167 50.6465 86.7167 50.0091L86.7164 20.1666C86.7164 19.0534 85.8129 18.15 84.6998 18.15ZM82.6833 47.2989L73.1907 44.4514C72.4788 44.2375 71.7105 44.4332 71.1861 44.9576C70.6598 45.4839 70.4663 46.2522 70.6799 46.9643L73.5314 56.4668H30.2498V22.1834H82.6833V47.2989Z" fill="#1DB46F"/>
</svg>
